<svg width="22" height="18" viewBox="0 0 22 18" fill="none" xmlns="http://www.w3.org/2000/svg">
<path d="M21.5898 0.30921C21.832 0.524817 21.9788 0.827787 21.9979 1.15156C22.0169 1.47533 21.9067 1.79342 21.6913 2.03595L8.63861 16.7212C8.5238 16.8504 8.38291 16.9538 8.22524 17.0246C8.06757 17.0954 7.89669 17.132 7.72384 17.132C7.551 17.132 7.38011 17.0954 7.22244 17.0246C7.06477 16.9538 6.92389 16.8504 6.80907 16.7212L0.282712 9.37856C0.0797116 9.13437 -0.0204198 8.82083 0.00347066 8.50418C0.0273611 8.18753 0.173402 7.89256 0.410744 7.68159C0.648085 7.47062 0.95814 7.36017 1.27541 7.37357C1.59268 7.38697 1.89232 7.52317 2.11102 7.7534L7.72323 14.0668L19.863 0.409559C20.0788 0.167443 20.3819 0.0208789 20.7056 0.0020632C21.0294 -0.0167525 21.3474 0.0937189 21.5898 0.30921Z" fill="#BB3D74"/>
</svg>
