<svg width="16" height="12" viewBox="0 0 16 12" fill="none" xmlns="http://www.w3.org/2000/svg">
<path d="M14.71 1.21C14.617 1.11627 14.5064 1.04188 14.3846 0.991107C14.2627 0.940338 14.132 0.9142 14 0.9142C13.868 0.9142 13.7373 0.940338 13.6154 0.991107C13.4936 1.04188 13.383 1.11627 13.29 1.21L5.84 8.67L2.71 5.53C2.61348 5.43676 2.49954 5.36345 2.37468 5.31424C2.24983 5.26504 2.1165 5.24091 1.98232 5.24323C1.84814 5.24555 1.71573 5.27428 1.59265 5.32777C1.46958 5.38126 1.35824 5.45848 1.265 5.555C1.17176 5.65152 1.09845 5.76546 1.04924 5.89032C1.00004 6.01517 0.975909 6.1485 0.97823 6.28268C0.980552 6.41686 1.00928 6.54927 1.06277 6.67234C1.11627 6.79542 1.19348 6.90676 1.29 7L5.13 10.84C5.22296 10.9337 5.33356 11.0081 5.45542 11.0589C5.57728 11.1097 5.70799 11.1358 5.84 11.1358C5.97201 11.1358 6.10272 11.1097 6.22458 11.0589C6.34644 11.0081 6.45704 10.9337 6.55 10.84L14.71 2.68C14.8115 2.58636 14.8925 2.4727 14.9479 2.3462C15.0033 2.21971 15.0319 2.0831 15.0319 1.945C15.0319 1.8069 15.0033 1.67029 14.9479 1.54379C14.8925 1.41729 14.8115 1.30364 14.71 1.21Z" fill="#BB3D74"/>
</svg>
