<svg width="37" height="37" viewBox="0 0 37 37" fill="none" xmlns="http://www.w3.org/2000/svg">
<path d="M24.125 18.5C24.125 19.6125 23.7951 20.7001 23.177 21.6251C22.5589 22.5501 21.6804 23.2711 20.6526 23.6968C19.6248 24.1226 18.4938 24.234 17.4026 24.0169C16.3115 23.7999 15.3092 23.2641 14.5225 22.4775C13.7359 21.6908 13.2001 20.6885 12.9831 19.5974C12.766 18.5062 12.8774 17.3752 13.3032 16.3474C13.7289 15.3196 14.4499 14.4411 15.3749 13.823C16.2999 13.2049 17.3875 12.875 18.5 12.875C19.9904 12.8796 21.4185 13.4738 22.4724 14.5276C23.5262 15.5815 24.1204 17.0096 24.125 18.5ZM36.0781 10.7656V26.2344C36.0781 28.8451 35.041 31.3489 33.195 33.195C31.3489 35.041 28.8451 36.0781 26.2344 36.0781H10.7656C8.1549 36.0781 5.6511 35.041 3.80504 33.195C1.95898 31.3489 0.921875 28.8451 0.921875 26.2344V10.7656C0.921875 8.1549 1.95898 5.6511 3.80504 3.80504C5.6511 1.95898 8.1549 0.921875 10.7656 0.921875H26.2344C28.8451 0.921875 31.3489 1.95898 33.195 3.80504C35.041 5.6511 36.0781 8.1549 36.0781 10.7656ZM26.9375 18.5C26.9375 16.8312 26.4426 15.1999 25.5155 13.8124C24.5884 12.4248 23.2706 11.3434 21.7289 10.7048C20.1871 10.0662 18.4906 9.89906 16.8539 10.2246C15.2172 10.5502 13.7138 11.3538 12.5338 12.5338C11.3538 13.7138 10.5502 15.2172 10.2246 16.8539C9.89906 18.4906 10.0662 20.1871 10.7048 21.7289C11.3434 23.2706 12.4248 24.5884 13.8124 25.5155C15.1999 26.4426 16.8312 26.9375 18.5 26.9375C20.7378 26.9375 22.8839 26.0486 24.4662 24.4662C26.0486 22.8839 26.9375 20.7378 26.9375 18.5ZM29.75 9.35938C29.75 8.94218 29.6263 8.53435 29.3945 8.18747C29.1627 7.84058 28.8333 7.57022 28.4478 7.41057C28.0624 7.25091 27.6383 7.20914 27.2291 7.29053C26.8199 7.37192 26.4441 7.57282 26.1491 7.86782C25.8541 8.16282 25.6532 8.53868 25.5718 8.94786C25.4904 9.35703 25.5322 9.78116 25.6918 10.1666C25.8515 10.552 26.1218 10.8815 26.4687 11.1133C26.8156 11.345 27.2234 11.4688 27.6406 11.4688C28.2001 11.4687 28.7366 11.2465 29.1322 10.8509C29.5278 10.4553 29.75 9.91882 29.75 9.35938Z" fill="#333333"/>
</svg>
