<svg width="55" height="55" viewBox="0 0 55 55" fill="none" xmlns="http://www.w3.org/2000/svg">
<path d="M27.5002 4.58337C14.8502 4.58337 4.5835 14.8501 4.5835 27.5001C4.5835 40.1501 14.8502 50.4168 27.5002 50.4168C40.1502 50.4168 50.4169 40.1501 50.4169 27.5001C50.4169 14.8501 40.1502 4.58337 27.5002 4.58337ZM38.1335 20.1667C37.7898 23.7876 36.3002 32.5876 35.544 36.6438C35.2231 38.3626 34.5815 38.9355 33.9856 39.0043C32.6565 39.1188 31.6481 38.1334 30.3648 37.2855C28.3481 35.9563 27.2023 35.1313 25.2544 33.848C22.9856 32.3584 24.4523 31.5334 25.7585 30.2042C26.1023 29.8605 31.969 24.5209 32.0835 24.0397C32.0995 23.9668 32.0973 23.8911 32.0774 23.8192C32.0574 23.7473 32.0202 23.6814 31.969 23.6272C31.8315 23.5126 31.6481 23.5584 31.4877 23.5813C31.2815 23.6272 28.0731 25.7584 21.8169 29.9751C20.9002 30.5938 20.0752 30.9147 19.3419 30.8917C18.5169 30.8688 16.9585 30.4334 15.7898 30.0438C14.346 29.5855 13.2231 29.3334 13.3148 28.5313C13.3606 28.1188 13.9335 27.7063 15.0106 27.2709C21.7023 24.3605 26.1481 22.4355 28.371 21.5188C34.7419 18.8605 36.0481 18.4021 36.919 18.4021C37.1023 18.4021 37.5377 18.448 37.8127 18.6771C38.0419 18.8605 38.1106 19.1126 38.1335 19.2959C38.1106 19.4334 38.1565 19.8459 38.1335 20.1667Z" fill="white" fill-opacity="0.8"/>
</svg>
