<svg width="39" height="39" viewBox="0 0 39 39" fill="none" xmlns="http://www.w3.org/2000/svg">
<path fill-rule="evenodd" clip-rule="evenodd" d="M19.5 0.75C9.14437 0.75 0.75 9.14438 0.75 19.5C0.75 23.0438 1.73437 26.3625 3.44625 29.19L1.77375 34.875C1.67772 35.2014 1.6714 35.5477 1.75546 35.8773C1.83951 36.207 2.01084 36.508 2.25142 36.7486C2.49201 36.9892 2.79296 37.1605 3.12266 37.2445C3.45235 37.3286 3.79859 37.3223 4.125 37.2263L9.81 35.5538C12.7325 37.322 16.0842 38.2546 19.5 38.25C29.8556 38.25 38.25 29.8556 38.25 19.5C38.25 9.14438 29.8556 0.75 19.5 0.75ZM15.2587 23.7431C19.0519 27.5344 22.6725 28.035 23.9512 28.0819C25.8956 28.1531 27.7894 26.6681 28.5262 24.945C28.6193 24.7306 28.653 24.4952 28.624 24.2634C28.595 24.0315 28.5042 23.8117 28.3612 23.6269C27.3337 22.3144 25.9444 21.3713 24.5869 20.4338C24.3034 20.2378 23.9551 20.1592 23.615 20.2144C23.2749 20.2696 22.9694 20.4544 22.7625 20.73L21.6375 22.4456C21.5784 22.5379 21.4862 22.604 21.3799 22.6305C21.2736 22.657 21.1611 22.6418 21.0656 22.5881C20.3025 22.1513 19.1906 21.4088 18.3919 20.61C17.5931 19.8113 16.8956 18.75 16.5037 18.0356C16.4552 17.9449 16.4411 17.8396 16.4642 17.7392C16.4873 17.6389 16.546 17.5504 16.6294 17.49L18.3619 16.2038C18.6091 15.9888 18.7687 15.6904 18.8102 15.3654C18.8517 15.0404 18.7722 14.7115 18.5869 14.4413C17.7469 13.2113 16.7681 11.6475 15.3487 10.6106C15.1656 10.4779 14.951 10.3951 14.7261 10.3705C14.5013 10.3458 14.2738 10.3801 14.0662 10.47C12.3412 11.2088 10.8487 13.1025 10.92 15.0506C10.9669 16.3294 11.4675 19.95 15.2587 23.7431Z" fill="#333333"/>
</svg>
