<svg width="55" height="55" viewBox="0 0 55 55" fill="none" xmlns="http://www.w3.org/2000/svg">
<g clip-path="url(#clip0_17509_31)">
<path fill-rule="evenodd" clip-rule="evenodd" d="M27.5002 4.58337C14.8433 4.58337 4.5835 14.8432 4.5835 27.5001C4.5835 31.8313 5.78662 35.8876 7.87892 39.3434L5.83475 46.2918C5.71738 46.6907 5.70966 47.1139 5.81239 47.5169C5.91513 47.9198 6.12452 48.2877 6.41857 48.5817C6.71262 48.8758 7.08046 49.0852 7.48341 49.1879C7.88637 49.2906 8.30956 49.2829 8.7085 49.1655L15.6568 47.1214C19.2288 49.2826 23.3253 50.4225 27.5002 50.4168C40.1571 50.4168 50.4169 40.157 50.4169 27.5001C50.4169 14.8432 40.1571 4.58337 27.5002 4.58337ZM22.3164 32.6861C26.9525 37.3199 31.3777 37.9318 32.9406 37.9891C35.3171 38.0761 37.6317 36.2611 38.5323 34.1551C38.646 33.8931 38.6873 33.6054 38.6518 33.322C38.6163 33.0386 38.5054 32.7699 38.3306 32.544C37.0748 30.9399 35.3767 29.7872 33.7175 28.6413C33.3711 28.4018 32.9454 28.3057 32.5297 28.3732C32.114 28.4407 31.7405 28.6666 31.4877 29.0034L30.1127 31.1003C30.0404 31.213 29.9278 31.2939 29.7978 31.3262C29.6679 31.3586 29.5305 31.3401 29.4137 31.2745C28.481 30.7405 27.1221 29.833 26.1458 28.8567C25.1696 27.8805 24.3171 26.5834 23.8381 25.7103C23.7787 25.5994 23.7616 25.4707 23.7898 25.348C23.818 25.2254 23.8897 25.1172 23.9916 25.0434L26.1092 23.4713C26.4113 23.2086 26.6064 22.8439 26.6571 22.4466C26.7078 22.0494 26.6106 21.6474 26.3842 21.3172C25.3575 19.8138 24.1612 17.9026 22.4264 16.6353C22.2026 16.473 21.9403 16.3719 21.6655 16.3417C21.3906 16.3116 21.1127 16.3535 20.8589 16.4634C18.7506 17.3663 16.9264 19.6809 17.0135 22.0619C17.0708 23.6249 17.6827 28.0501 22.3164 32.6861Z" fill="white" fill-opacity="0.8"/>
</g>
<defs>
<clipPath id="clip0_17509_31">
<rect width="55.0001" height="55.0001" fill="white"/>
</clipPath>
</defs>
</svg>
