<svg width="432" height="199" viewBox="0 0 432 199" fill="none" xmlns="http://www.w3.org/2000/svg">
<path d="M0.330078 199V193.58H7.80078C16.1016 193.58 22.0586 190.895 25.6719 185.523C27.8203 182.398 28.8945 175.172 28.8945 163.844V35.5234C28.8945 23.0234 27.5273 15.2598 24.793 12.2324C20.9844 7.93555 15.3203 5.78711 7.80078 5.78711H0.330078V0.367188H81.1895C110.877 0.367188 133.436 3.73633 148.865 10.4746C164.393 17.2129 176.844 28.4434 186.219 44.166C195.691 59.791 200.428 77.9551 200.428 98.6582C200.428 113.307 198.035 126.783 193.25 139.088C188.562 151.393 181.531 161.988 172.156 170.875C162.879 179.664 151.258 186.549 137.293 191.529C123.426 196.51 107.361 199 89.0996 199H0.330078ZM57.0195 184.645C69.2266 187.379 79.627 188.746 88.2207 188.746C99.4512 188.746 109.852 186.695 119.422 182.594C129.09 178.395 137.439 172.486 144.471 164.869C151.502 157.154 157.02 147.828 161.023 136.891C165.027 125.953 167.029 113.697 167.029 100.123C167.029 86.4512 165.027 74.1465 161.023 63.209C157.117 52.2715 151.6 42.9941 144.471 35.377C137.439 27.6621 128.992 21.7539 119.129 17.6523C109.363 13.5508 98.6699 11.5 87.0488 11.5C82.6543 11.5 77.9668 11.8906 72.9863 12.6719C68.0059 13.3555 62.6836 14.3809 57.0195 15.748V184.645ZM301.648 88.8438L374.891 161.646C386.902 173.658 397.156 181.861 405.652 186.256C414.246 190.553 422.742 192.994 431.141 193.58V199H336.658V193.58C342.322 193.58 346.375 192.652 348.816 190.797C351.355 188.844 352.625 186.695 352.625 184.352C352.625 183.18 352.576 182.154 352.479 181.275C352.381 180.299 351.99 179.273 351.307 178.199C350.721 177.125 349.695 175.758 348.23 174.098C346.863 172.438 344.812 170.289 342.078 167.652L273.523 99.8301V163.844C273.523 168.531 273.621 172.34 273.816 175.27C274.012 178.199 274.354 180.592 274.842 182.447C275.428 184.303 276.258 185.816 277.332 186.988C278.406 188.062 279.822 189.088 281.58 190.064C285.779 192.408 290.223 193.58 294.91 193.58H301.648V199H216.98V193.58H224.012C232.312 193.58 238.27 191.188 241.883 186.402C244.227 183.375 245.398 175.855 245.398 163.844V35.5234C245.398 31.0312 245.301 27.3203 245.105 24.3906C245.008 21.4609 244.666 19.0684 244.08 17.2129C243.494 15.2598 242.664 13.6973 241.59 12.5254C240.613 11.3535 239.246 10.2793 237.488 9.30273C233.191 6.95898 228.699 5.78711 224.012 5.78711H216.98V0.367188H301.648V5.78711H294.91C293.055 5.78711 291.102 5.98242 289.051 6.37305C287.098 6.76367 285.193 7.39844 283.338 8.27734C281.58 9.05859 279.969 10.1328 278.504 11.5C277.039 12.7695 275.965 14.332 275.281 16.1875C274.109 19.3125 273.523 25.7578 273.523 35.5234V96.3145C277.332 93.1895 281.678 89.3809 286.561 84.8887C291.443 80.3965 296.424 75.6602 301.502 70.6797C306.678 65.6992 311.756 60.7188 316.736 55.7383C321.814 50.7578 326.404 46.168 330.506 41.9688C334.607 37.6719 338.025 33.9609 340.76 30.8359C343.592 27.7109 345.398 25.6113 346.18 24.5371C348.816 20.6309 350.135 17.2129 350.135 14.2832C350.135 12.0371 349.109 10.084 347.059 8.42383C345.105 6.66602 341.639 5.78711 336.658 5.78711H332.117V0.367188H405.066V5.78711C400.77 5.98242 396.863 6.56836 393.348 7.54492C391.59 8.13086 389.637 8.91211 387.488 9.88867C385.34 10.8652 382.947 12.1836 380.311 13.8438C377.771 15.5039 374.939 17.5547 371.814 19.9961C368.787 22.3398 365.418 25.2207 361.707 28.6387L301.648 88.8438Z" fill="#020202"/>
</svg>
