<svg width="34" height="34" viewBox="0 0 34 34" fill="none" xmlns="http://www.w3.org/2000/svg">
<path d="M21.167 16.6667C21.167 17.4908 20.9226 18.2964 20.4648 18.9816C20.0069 19.6668 19.3562 20.2008 18.5948 20.5162C17.8335 20.8316 16.9957 20.9141 16.1874 20.7533C15.3792 20.5925 14.6368 20.1957 14.054 19.613C13.4713 19.0303 13.0745 18.2878 12.9137 17.4796C12.7529 16.6713 12.8355 15.8336 13.1508 15.0722C13.4662 14.3108 14.0002 13.6601 14.6854 13.2023C15.3707 12.7444 16.1762 12.5 17.0003 12.5C18.1043 12.5035 19.1622 12.9436 19.9428 13.7242C20.7235 14.5049 21.1636 15.5627 21.167 16.6667ZM30.0212 10.9375V22.3959C30.0212 24.3297 29.2529 26.1844 27.8855 27.5519C26.518 28.9193 24.6634 29.6875 22.7295 29.6875H11.2712C9.33729 29.6875 7.48262 28.9193 6.11517 27.5519C4.74772 26.1844 3.97949 24.3297 3.97949 22.3959V10.9375C3.97949 9.00367 4.74772 7.14901 6.11517 5.78155C7.48262 4.4141 9.33729 3.64587 11.2712 3.64587H22.7295C24.6634 3.64587 26.518 4.4141 27.8855 5.78155C29.2529 7.14901 30.0212 9.00367 30.0212 10.9375ZM23.2503 16.6667C23.2503 15.4306 22.8838 14.2222 22.197 13.1944C21.5103 12.1666 20.5341 11.3655 19.3921 10.8925C18.2501 10.4194 16.9934 10.2956 15.781 10.5368C14.5686 10.778 13.455 11.3732 12.5809 12.2473C11.7068 13.1214 11.1116 14.235 10.8704 15.4474C10.6293 16.6598 10.753 17.9164 11.2261 19.0585C11.6991 20.2005 12.5002 21.1766 13.528 21.8634C14.5558 22.5501 15.7642 22.9167 17.0003 22.9167C18.6579 22.9167 20.2476 22.2582 21.4197 21.0861C22.5918 19.914 23.2503 18.3243 23.2503 16.6667ZM25.3337 9.89587C25.3337 9.58684 25.242 9.28475 25.0703 9.0278C24.8986 8.77084 24.6546 8.57057 24.3691 8.45231C24.0836 8.33405 23.7694 8.30311 23.4663 8.3634C23.1632 8.42369 22.8848 8.5725 22.6663 8.79102C22.4478 9.00954 22.299 9.28795 22.2387 9.59104C22.1784 9.89414 22.2093 10.2083 22.3276 10.4938C22.4459 10.7793 22.6461 11.0234 22.9031 11.195C23.16 11.3667 23.4621 11.4584 23.7712 11.4584C24.1856 11.4584 24.583 11.2938 24.876 11.0007C25.169 10.7077 25.3337 10.3103 25.3337 9.89587Z" fill="white" fill-opacity="0.8"/>
</svg>
