<svg width="55" height="55" viewBox="0 0 55 55" fill="none" xmlns="http://www.w3.org/2000/svg">
<path d="M34.375 27.5C34.375 28.8598 33.9718 30.189 33.2164 31.3196C32.461 32.4502 31.3872 33.3314 30.131 33.8517C28.8747 34.3721 27.4924 34.5082 26.1588 34.2429C24.8252 33.9777 23.6002 33.3229 22.6387 32.3614C21.6772 31.3999 21.0224 30.1749 20.7571 28.8413C20.4918 27.5077 20.628 26.1253 21.1484 24.8691C21.6687 23.6128 22.5499 22.5391 23.6805 21.7837C24.8111 21.0282 26.1403 20.625 27.5 20.625C29.3217 20.6307 31.0671 21.3568 32.3551 22.6449C33.6432 23.933 34.3694 25.6784 34.375 27.5ZM48.9844 18.0469V36.9532C48.9844 40.1441 47.7169 43.2043 45.4606 45.4606C43.2043 47.7169 40.1441 48.9844 36.9532 48.9844H18.0469C14.856 48.9844 11.7958 47.7169 9.5395 45.4606C7.2832 43.2043 6.01563 40.1441 6.01562 36.9532V18.0469C6.01563 14.856 7.2832 11.7958 9.5395 9.5395C11.7958 7.2832 14.856 6.01563 18.0469 6.01562H36.9532C40.1441 6.01563 43.2043 7.2832 45.4606 9.5395C47.7169 11.7958 48.9844 14.856 48.9844 18.0469ZM37.8125 27.5C37.8125 25.4604 37.2077 23.4666 36.0746 21.7707C34.9414 20.0748 33.3308 18.753 31.4465 17.9725C29.5621 17.192 27.4886 16.9878 25.4882 17.3857C23.4877 17.7836 21.6502 18.7658 20.208 20.208C18.7658 21.6502 17.7836 23.4877 17.3857 25.4882C16.9878 27.4886 17.192 29.5621 17.9725 31.4465C18.753 33.3308 20.0748 34.9414 21.7707 36.0746C23.4666 37.2077 25.4604 37.8125 27.5 37.8125C30.2351 37.8125 32.8581 36.7261 34.7921 34.7921C36.7261 32.8581 37.8125 30.2351 37.8125 27.5ZM41.2501 16.3281C41.2501 15.8182 41.0988 15.3198 40.8156 14.8958C40.5323 14.4718 40.1296 14.1414 39.6585 13.9463C39.1874 13.7511 38.6691 13.7001 38.169 13.7995C37.6688 13.899 37.2095 14.1446 36.8489 14.5051C36.4884 14.8657 36.2428 15.3251 36.1433 15.8252C36.0439 16.3253 36.0949 16.8437 36.29 17.3147C36.4852 17.7858 36.8156 18.1885 37.2396 18.4718C37.6636 18.7551 38.162 18.9063 38.6719 18.9063C39.3557 18.9063 40.0114 18.6346 40.4949 18.1512C40.9784 17.6677 41.2501 17.0119 41.2501 16.3281Z" fill="white" fill-opacity="0.8"/>
</svg>
