<svg width="300" height="79" viewBox="0 0 300 79" fill="none" xmlns="http://www.w3.org/2000/svg">
<path d="M78.9299 31V30.1387C79.469 29.998 79.8557 29.8633 80.0901 29.7344C80.3245 29.6055 80.5061 29.4414 80.635 29.2422C80.7639 29.043 80.8577 28.7559 80.9163 28.3809C80.9748 28.0059 81.0041 27.4141 81.0041 26.6055V11.4004C81.0041 10.5801 80.9748 9.98828 80.9163 9.625C80.8577 9.25 80.758 8.96289 80.6174 8.76367C80.4885 8.56445 80.3127 8.40625 80.0901 8.28906C79.8674 8.16016 79.4807 8.01953 78.9299 7.86719V7.00586H86.6291C88.844 7.00586 90.6545 7.25195 92.0608 7.74414C93.4788 8.22461 94.6741 8.93945 95.6467 9.88867C96.6194 10.8379 97.3459 12.0215 97.8264 13.4395C98.3069 14.8457 98.5471 16.5273 98.5471 18.4844C98.5471 20.4648 98.3186 22.2109 97.8616 23.7227C97.4163 25.2227 96.76 26.4824 95.8928 27.502C95.1428 28.3926 94.2229 29.125 93.133 29.6992C92.2307 30.168 91.1877 30.502 90.0041 30.7012C88.8205 30.9004 87.2502 31 85.2932 31H78.9299ZM84.2913 29.3652C84.76 29.4121 85.4514 29.4355 86.3655 29.4355C87.3498 29.4355 88.2288 29.3535 89.0022 29.1895C89.7756 29.0254 90.4788 28.7676 91.1116 28.416C91.7444 28.0645 92.3127 27.5781 92.8166 26.957C93.3205 26.3242 93.7307 25.6035 94.0471 24.7949C94.3635 23.9746 94.592 23.0664 94.7327 22.0703C94.885 21.0742 94.9612 19.9844 94.9612 18.8008C94.9612 16.4219 94.6155 14.4707 93.9241 12.9473C93.2444 11.4121 92.2776 10.293 91.0237 9.58984C89.7815 8.88672 88.2932 8.53516 86.5588 8.53516C85.762 8.53516 85.0061 8.55859 84.2913 8.60547V29.3652ZM109.19 17.8516H109.717C110.162 17.8516 110.567 17.7812 110.93 17.6406C111.305 17.5 111.721 17.2363 112.178 16.8496C112.635 16.4629 113.332 15.7422 114.27 14.6875C115.395 13.4336 116.162 12.5254 116.572 11.9629C117.088 11.2949 117.434 10.7324 117.61 10.2754C117.75 9.93555 117.82 9.60742 117.82 9.29102C117.82 8.82227 117.686 8.48242 117.416 8.27148C117.147 8.04883 116.778 7.91406 116.309 7.86719V7.00586H123.973V7.86719C123.598 7.94922 123.229 8.0957 122.865 8.30664C122.502 8.50586 122.127 8.78711 121.74 9.15039C121.365 9.50195 120.809 10.0879 120.07 10.9082L114.164 17.5527L120.563 26.8516C121.242 27.8359 121.776 28.5273 122.162 28.9258C122.549 29.3125 122.918 29.5996 123.27 29.7871C123.621 29.9629 123.996 30.0801 124.395 30.1387V31H116.643V30.1387C117.076 30.1035 117.393 30.0215 117.592 29.8926C117.791 29.7637 117.891 29.5703 117.891 29.3125C117.891 29.1016 117.82 28.8496 117.68 28.5566C117.551 28.252 117.34 27.8887 117.047 27.4668L112.951 21.3672C112.471 20.6406 112.119 20.1602 111.897 19.9258C111.674 19.6914 111.434 19.5215 111.176 19.416C110.918 19.2988 110.572 19.2402 110.139 19.2402H109.207V26.6055C109.207 27.3906 109.231 27.9648 109.278 28.3281C109.336 28.6914 109.424 28.9785 109.541 29.1895C109.67 29.4004 109.852 29.5762 110.086 29.7168C110.332 29.8574 110.725 29.998 111.264 30.1387V31H103.863V30.1387C104.59 29.9512 105.076 29.7461 105.322 29.5234C105.569 29.2891 105.727 28.9609 105.797 28.5391C105.879 28.1172 105.92 27.4727 105.92 26.6055V11.4004C105.92 10.5918 105.891 10.0059 105.832 9.64258C105.774 9.26758 105.674 8.98047 105.533 8.78125C105.404 8.57031 105.229 8.40625 105.006 8.28906C104.783 8.16016 104.403 8.01953 103.863 7.86719V7.00586H111.264V7.86719C110.748 7.99609 110.373 8.125 110.139 8.25391C109.916 8.38281 109.735 8.54688 109.594 8.74609C109.465 8.93359 109.365 9.2207 109.295 9.60742C109.236 9.99414 109.207 10.5918 109.207 11.4004L109.19 17.8516ZM138.244 25.5332C138.479 26.5645 138.795 27.3789 139.193 27.9766C139.592 28.5742 140.107 29.0195 140.74 29.3125C141.373 29.5938 142.188 29.7344 143.184 29.7344C144.555 29.7344 145.604 29.377 146.33 28.6621C147.068 27.9473 147.438 26.9043 147.438 25.5332C147.438 24.6543 147.285 23.916 146.98 23.3184C146.676 22.7207 146.178 22.1582 145.486 21.6309C144.795 21.1035 143.74 20.4883 142.322 19.7852C140.951 19.1055 139.867 18.4434 139.07 17.7988C138.273 17.1426 137.676 16.4336 137.277 15.6719C136.891 14.9102 136.697 14.0781 136.697 13.1758C136.697 11.8633 137.002 10.7266 137.611 9.76562C138.232 8.79297 139.135 8.04297 140.318 7.51562C141.514 6.98828 142.879 6.72461 144.414 6.72461C145.305 6.72461 146.172 6.77148 147.016 6.86523C147.871 6.95898 148.938 7.16992 150.215 7.49805V12.2441H148.475C148.205 11.2129 147.865 10.4102 147.455 9.83594C147.045 9.26172 146.564 8.86328 146.014 8.64062C145.463 8.40625 144.748 8.28906 143.869 8.28906C143.107 8.28906 142.422 8.42969 141.813 8.71094C141.215 8.99219 140.74 9.41992 140.389 9.99414C140.037 10.5566 139.861 11.2305 139.861 12.0156C139.861 12.8477 140.008 13.5508 140.301 14.125C140.605 14.6992 141.074 15.2324 141.707 15.7246C142.34 16.2168 143.277 16.7676 144.52 17.377C146.02 18.127 147.18 18.8242 148 19.4688C148.832 20.1133 149.477 20.8516 149.934 21.6836C150.402 22.5039 150.637 23.4648 150.637 24.5664C150.637 25.7969 150.443 26.8398 150.057 27.6953C149.67 28.5391 149.131 29.2305 148.439 29.7695C147.76 30.2969 146.939 30.6836 145.979 30.9297C145.029 31.1641 143.986 31.2812 142.85 31.2812C141.01 31.2812 138.889 30.9707 136.486 30.3496V25.5332H138.244ZM173.988 26.6055C173.988 27.2852 174.006 27.7949 174.041 28.1348C174.076 28.4746 174.135 28.75 174.217 28.9609C174.299 29.1602 174.398 29.3242 174.516 29.4531C174.633 29.582 174.797 29.6992 175.008 29.8047C175.23 29.9102 175.57 30.0215 176.027 30.1387V31H168.662V30.1387C169.307 29.9746 169.758 29.793 170.016 29.5938C170.273 29.3945 170.449 29.0898 170.543 28.6797C170.648 28.2695 170.701 27.5781 170.701 26.6055V19.2402H160.928V26.6055C160.928 27.3906 160.951 27.9648 160.998 28.3281C161.057 28.6914 161.144 28.9785 161.262 29.1895C161.391 29.4004 161.572 29.5762 161.807 29.7168C162.053 29.8574 162.445 29.998 162.984 30.1387V31H155.584V30.1387C156.31 29.9512 156.797 29.7461 157.043 29.5234C157.289 29.2891 157.447 28.9609 157.518 28.5391C157.6 28.1172 157.641 27.4727 157.641 26.6055V11.4004C157.641 10.5918 157.611 10.0059 157.553 9.64258C157.494 9.26758 157.394 8.98047 157.254 8.78125C157.125 8.57031 156.949 8.40625 156.726 8.28906C156.504 8.16016 156.123 8.01953 155.584 7.86719V7.00586H162.984V7.86719C162.469 7.99609 162.094 8.125 161.859 8.25391C161.637 8.38281 161.455 8.54688 161.314 8.74609C161.185 8.93359 161.086 9.2207 161.016 9.60742C160.957 9.99414 160.928 10.5918 160.928 11.4004V17.623H170.701V11.4004C170.701 10.3809 170.648 9.68359 170.543 9.30859C170.449 8.93359 170.285 8.64648 170.051 8.44727C169.816 8.24805 169.353 8.05469 168.662 7.86719V7.00586H176.027V7.86719C175.371 8.03125 174.914 8.21875 174.656 8.42969C174.398 8.62891 174.223 8.93359 174.129 9.34375C174.035 9.75391 173.988 10.4395 173.988 11.4004V26.6055ZM190.748 31.2812C189.342 31.2812 188.058 31.0527 186.898 30.5957C185.75 30.127 184.76 29.4062 183.928 28.4336C183.107 27.4492 182.469 26.1953 182.012 24.6719C181.566 23.1484 181.344 21.3262 181.344 19.2051C181.344 16.5918 181.742 14.3477 182.539 12.4727C183.336 10.5977 184.473 9.17383 185.949 8.20117C187.437 7.2168 189.16 6.72461 191.117 6.72461C193.203 6.72461 194.955 7.1875 196.373 8.11328C197.803 9.02734 198.875 10.3809 199.59 12.1738C200.316 13.9551 200.68 16.1289 200.68 18.6953C200.68 21.4375 200.269 23.752 199.449 25.6387C198.629 27.5254 197.469 28.9375 195.969 29.875C194.48 30.8125 192.74 31.2812 190.748 31.2812ZM184.965 18.7129C184.965 22.3105 185.486 25.0469 186.529 26.9219C187.584 28.7969 189.119 29.7344 191.135 29.7344C192.412 29.7344 193.496 29.3301 194.387 28.5215C195.277 27.7012 195.945 26.5059 196.39 24.9355C196.836 23.3652 197.058 21.5312 197.058 19.4336C197.058 16.8789 196.795 14.7637 196.267 13.0879C195.752 11.4004 195.043 10.1758 194.14 9.41406C193.238 8.65234 192.189 8.27148 190.994 8.27148C189.939 8.27148 189.031 8.51758 188.269 9.00977C187.519 9.50195 186.892 10.2051 186.389 11.1191C185.896 12.0215 185.533 13.1172 185.299 14.4062C185.076 15.6953 184.965 17.1309 184.965 18.7129ZM204.519 7.00586H223.539V13.123H221.816C221.558 12.1152 221.301 11.3184 221.043 10.7324C220.797 10.1465 220.533 9.70117 220.252 9.39648C219.97 9.0918 219.666 8.875 219.338 8.74609C219.021 8.61719 218.541 8.55273 217.896 8.55273H215.664V26.5527C215.664 27.2441 215.699 27.7949 215.769 28.2051C215.851 28.6152 215.969 28.9434 216.121 29.1895C216.285 29.4238 216.502 29.6113 216.771 29.752C217.041 29.8809 217.463 30.0098 218.037 30.1387V31H210.004V30.1387C210.355 30.0566 210.666 29.9688 210.935 29.875C211.205 29.7812 211.422 29.6699 211.586 29.541C211.761 29.4004 211.902 29.2246 212.008 29.0137C212.125 28.8027 212.213 28.5156 212.271 28.1523C212.342 27.7891 212.377 27.2559 212.377 26.5527V8.55273H210.162C209.611 8.55273 209.154 8.60547 208.791 8.71094C208.439 8.81641 208.111 9.03906 207.806 9.37891C207.502 9.70703 207.22 10.1816 206.963 10.8027C206.717 11.4121 206.482 12.1855 206.26 13.123H204.519V7.00586Z" fill="white"/>
<path d="M92.742 62.707V64.7676C92.742 65.1908 92.755 65.5065 92.7811 65.7148C92.8136 65.9232 92.8657 66.0859 92.9373 66.2031C93.0154 66.3268 93.1229 66.4277 93.2596 66.5059C93.4028 66.584 93.6307 66.6556 93.9432 66.7207V67.1992H89.9588V66.7207C90.1932 66.6556 90.382 66.5872 90.5252 66.5156C90.6749 66.4505 90.7889 66.3496 90.867 66.2129C90.9451 66.0827 90.9972 65.9036 91.0232 65.6758C91.0493 65.4479 91.0623 65.1452 91.0623 64.7676V56.3887C91.0623 55.9199 91.0558 55.5879 91.0428 55.3926C91.0298 55.1908 91.0037 55.0247 90.9646 54.8945C90.9256 54.7643 90.867 54.6569 90.7889 54.5723C90.7173 54.4876 90.6163 54.416 90.4861 54.3574C90.3624 54.2988 90.1541 54.2402 89.8611 54.1816V53.6641L92.1561 53.5762H92.7518L92.6248 55.168L92.7713 55.207C93.1749 54.7969 93.4939 54.5007 93.7283 54.3184C93.9627 54.1296 94.2036 53.9733 94.451 53.8496C94.7049 53.7259 94.9458 53.638 95.1736 53.5859C95.408 53.5339 95.6554 53.5078 95.9158 53.5078C96.99 53.5078 97.8136 53.9115 98.3865 54.7188C98.966 55.5195 99.2557 56.6947 99.2557 58.2441C99.2557 59.3184 99.0929 60.2233 98.7674 60.959C98.4419 61.6882 97.9666 62.2383 97.3416 62.6094C96.7231 62.974 95.9842 63.1562 95.1248 63.1562C94.643 63.1562 94.2068 63.1139 93.8162 63.0293C93.4256 62.9512 93.0675 62.8438 92.742 62.707ZM92.742 59.4844C92.742 60.1094 92.7811 60.5911 92.8592 60.9297C92.9373 61.2682 93.074 61.5449 93.2693 61.7598C93.4712 61.9681 93.7055 62.1243 93.9725 62.2285C94.2459 62.3327 94.604 62.3848 95.0467 62.3848C95.8344 62.3848 96.4269 62.0592 96.824 61.4082C97.2212 60.7507 97.4197 59.7839 97.4197 58.5078C97.4197 55.9557 96.6743 54.6797 95.1834 54.6797C94.8188 54.6797 94.5031 54.7383 94.2361 54.8555C93.9757 54.9661 93.7153 55.1484 93.4549 55.4023C93.1945 55.6562 93.0089 55.9036 92.8982 56.1445C92.7941 56.3789 92.742 56.6328 92.742 56.9062V59.4844ZM107.265 55.2852L107.402 55.3145C107.76 54.8783 108.092 54.5365 108.398 54.2891C108.704 54.0352 109.033 53.8398 109.384 53.7031C109.742 53.5664 110.146 53.498 110.595 53.498C110.973 53.498 111.315 53.5176 111.621 53.5566V55.8027H110.517C110.361 55.4512 110.195 55.1973 110.019 55.041C109.843 54.8783 109.602 54.7969 109.296 54.7969C109.062 54.7969 108.828 54.8652 108.593 55.002C108.365 55.1387 108.144 55.3372 107.929 55.5977C107.714 55.8581 107.565 56.1022 107.48 56.3301C107.402 56.5579 107.363 56.8281 107.363 57.1406V60.5586C107.363 61.151 107.399 61.5612 107.47 61.7891C107.542 62.0104 107.659 62.1732 107.822 62.2773C107.991 62.3815 108.242 62.4629 108.574 62.5215V63H104.638V62.5215C104.885 62.4434 105.061 62.375 105.165 62.3164C105.276 62.2578 105.371 62.1764 105.449 62.0723C105.527 61.9681 105.585 61.8086 105.624 61.5938C105.663 61.3789 105.683 61.0436 105.683 60.5879V56.3301C105.683 55.9134 105.676 55.5781 105.663 55.3242C105.65 55.0703 105.605 54.8685 105.527 54.7188C105.449 54.5625 105.328 54.4486 105.165 54.377C105.009 54.2988 104.785 54.2337 104.492 54.1816V53.6738L106.777 53.5762H107.372L107.265 55.2852ZM120.265 63.1562C118.91 63.1562 117.875 62.7591 117.159 61.9648C116.45 61.1641 116.095 59.9824 116.095 58.4199C116.095 57.3457 116.28 56.4375 116.651 55.6953C117.029 54.9531 117.543 54.403 118.194 54.0449C118.845 53.6803 119.588 53.498 120.421 53.498C121.814 53.498 122.869 53.9049 123.585 54.7188C124.301 55.526 124.659 56.6882 124.659 58.2051C124.659 59.2858 124.48 60.1973 124.122 60.9395C123.764 61.6816 123.256 62.2383 122.599 62.6094C121.941 62.974 121.163 63.1562 120.265 63.1562ZM117.94 58.2148C117.94 59.556 118.152 60.5879 118.575 61.3105C119.005 62.0267 119.617 62.3848 120.411 62.3848C120.847 62.3848 121.218 62.2806 121.524 62.0723C121.83 61.8574 122.078 61.571 122.267 61.2129C122.462 60.8548 122.602 60.4414 122.687 59.9727C122.771 59.4974 122.813 59.0026 122.813 58.4883C122.813 57.5312 122.706 56.737 122.491 56.1055C122.283 55.474 121.996 55.0117 121.632 54.7188C121.267 54.4193 120.851 54.2695 120.382 54.2695C119.594 54.2695 118.989 54.6113 118.565 55.2949C118.149 55.9785 117.94 56.9518 117.94 58.2148ZM136.633 52.3848C136.633 51.7598 136.627 51.3236 136.614 51.0762C136.607 50.8288 136.581 50.6204 136.536 50.4512C136.497 50.2754 136.438 50.1387 136.36 50.041C136.288 49.9434 136.187 49.8652 136.057 49.8066C135.934 49.748 135.706 49.6895 135.374 49.6309V49.123L137.737 49.0254H138.313V60.334C138.313 60.8418 138.323 61.2064 138.342 61.4277C138.362 61.6426 138.404 61.8151 138.469 61.9453C138.534 62.0755 138.635 62.1829 138.772 62.2676C138.915 62.3457 139.163 62.4206 139.514 62.4922V63L137.21 63.0977H136.624L136.741 61.4961L136.594 61.457C136.184 61.8932 135.826 62.222 135.52 62.4434C135.221 62.6582 134.898 62.8307 134.553 62.9609C134.215 63.0911 133.85 63.1562 133.46 63.1562C132.392 63.1562 131.568 62.7526 130.989 61.9453C130.409 61.1315 130.12 59.9596 130.12 58.4297C130.12 57.362 130.309 56.457 130.686 55.7148C131.064 54.9661 131.572 54.4095 132.21 54.0449C132.854 53.6803 133.577 53.498 134.378 53.498C134.807 53.498 135.198 53.5339 135.549 53.6055C135.901 53.6706 136.262 53.7812 136.633 53.9375V52.3848ZM136.633 57.209C136.633 56.7012 136.611 56.2943 136.565 55.9883C136.519 55.6823 136.441 55.4251 136.331 55.2168C136.226 55.0085 136.083 54.8327 135.901 54.6895C135.719 54.5462 135.517 54.4421 135.296 54.377C135.081 54.3118 134.82 54.2793 134.514 54.2793C133.681 54.2793 133.046 54.6146 132.61 55.2852C132.174 55.9492 131.956 56.9062 131.956 58.1562C131.956 59.4062 132.135 60.3568 132.493 61.0078C132.851 61.6589 133.394 61.9844 134.124 61.9844C134.41 61.9844 134.648 61.9616 134.837 61.916C135.025 61.8639 135.211 61.7858 135.393 61.6816C135.575 61.571 135.761 61.4212 135.95 61.2324C136.139 61.0436 136.275 60.8711 136.36 60.7148C136.451 60.5586 136.519 60.3796 136.565 60.1777C136.611 59.9759 136.633 59.7155 136.633 59.3965V57.209ZM144.301 53.6641H147.084V58.6348C147.084 59.3965 147.113 59.9759 147.172 60.373C147.231 60.7702 147.319 61.0697 147.436 61.2715C147.553 61.4733 147.719 61.6426 147.934 61.7793C148.149 61.916 148.445 61.9844 148.822 61.9844C149.07 61.9844 149.307 61.9355 149.535 61.8379C149.763 61.7402 150.017 61.571 150.297 61.3301C150.577 61.0827 150.776 60.8385 150.893 60.5977C151.016 60.3568 151.078 60.0768 151.078 59.7578V56.0957C151.078 55.7246 151.069 55.4447 151.049 55.2559C151.029 55.0671 150.997 54.9173 150.951 54.8066C150.906 54.6895 150.85 54.5951 150.785 54.5234C150.727 54.4518 150.639 54.3867 150.522 54.3281C150.411 54.2695 150.229 54.2077 149.975 54.1426V53.6641H152.758V60.334C152.758 60.8353 152.768 61.1966 152.787 61.418C152.807 61.6393 152.849 61.8151 152.914 61.9453C152.979 62.0755 153.08 62.1829 153.217 62.2676C153.354 62.3457 153.598 62.4206 153.949 62.4922V63L151.713 63.0977H151.117L151.176 61.4961L151.029 61.457C150.489 62.043 149.972 62.4727 149.477 62.7461C148.988 63.0195 148.497 63.1562 148.002 63.1562C147.41 63.1562 146.921 63.0391 146.537 62.8047C146.153 62.5703 145.867 62.222 145.678 61.7598C145.489 61.291 145.395 60.6335 145.395 59.7871V56.0957C145.395 55.5488 145.372 55.1745 145.326 54.9727C145.287 54.7643 145.206 54.6016 145.082 54.4844C144.965 54.3607 144.705 54.2467 144.301 54.1426V53.6641ZM166.265 53.8887V55.9297H165.025C164.915 55.5065 164.778 55.1745 164.615 54.9336C164.452 54.6862 164.263 54.5137 164.049 54.416C163.834 54.3184 163.567 54.2695 163.248 54.2695C162.792 54.2695 162.388 54.416 162.037 54.709C161.685 55.002 161.405 55.4479 161.197 56.0469C160.995 56.6458 160.894 57.3783 160.894 58.2441C160.894 58.7975 160.933 59.3053 161.012 59.7676C161.09 60.2233 161.223 60.6139 161.412 60.9395C161.601 61.265 161.851 61.5189 162.164 61.7012C162.476 61.8835 162.864 61.9746 163.326 61.9746C163.775 61.9746 164.192 61.8867 164.576 61.7109C164.967 61.5352 165.37 61.2259 165.787 60.7832L166.344 61.4277C166.012 61.7923 165.719 62.0755 165.465 62.2773C165.211 62.4727 164.937 62.6387 164.644 62.7754C164.358 62.9056 164.071 63 163.785 63.0586C163.505 63.1237 163.199 63.1562 162.867 63.1562C161.637 63.1562 160.696 62.7493 160.045 61.9355C159.394 61.1152 159.068 59.9336 159.068 58.3906C159.068 57.4271 159.25 56.5742 159.615 55.832C159.98 55.0833 160.491 54.5072 161.148 54.1035C161.806 53.6999 162.564 53.498 163.424 53.498C163.957 53.498 164.449 53.5306 164.898 53.5957C165.354 53.6543 165.81 53.752 166.265 53.8887ZM170.632 54.1523C170.958 54.1003 171.221 54.0091 171.423 53.8789C171.625 53.7487 171.781 53.5827 171.892 53.3809C172.009 53.1725 172.1 52.9154 172.165 52.6094C172.231 52.2969 172.299 51.8444 172.371 51.252H173.757V53.6641H176.912V54.6504H173.757V58.9961C173.757 59.6276 173.783 60.1322 173.835 60.5098C173.887 60.8809 173.985 61.1738 174.128 61.3887C174.272 61.597 174.434 61.7467 174.617 61.8379C174.799 61.929 175.033 61.9746 175.32 61.9746C175.58 61.9746 175.824 61.9225 176.052 61.8184C176.28 61.7077 176.505 61.5514 176.726 61.3496L177.165 61.877C176.703 62.3262 176.264 62.6517 175.847 62.8535C175.437 63.0553 175.01 63.1562 174.568 63.1562C173.728 63.1562 173.103 62.9089 172.693 62.4141C172.283 61.9128 172.078 61.1315 172.078 60.0703V54.6504H170.632V54.1523ZM184.188 49.8359V51.7305H182.392V49.8359H184.188ZM181.396 62.5215C181.649 62.4434 181.828 62.375 181.933 62.3164C182.043 62.2578 182.134 62.1764 182.206 62.0723C182.284 61.9681 182.343 61.8086 182.382 61.5938C182.427 61.3789 182.45 61.0436 182.45 60.5879V56.3301C182.45 55.9134 182.444 55.5781 182.431 55.3242C182.418 55.0703 182.372 54.8685 182.294 54.7188C182.216 54.5625 182.095 54.4486 181.933 54.377C181.776 54.2988 181.552 54.2337 181.259 54.1816V53.6641L183.534 53.5762H184.13V60.5586C184.13 61.1185 184.156 61.5091 184.208 61.7305C184.26 61.9453 184.358 62.1113 184.501 62.2285C184.651 62.3392 184.892 62.4368 185.224 62.5215V63H181.396V62.5215ZM194.61 63.1562C193.256 63.1562 192.221 62.7591 191.504 61.9648C190.795 61.1641 190.44 59.9824 190.44 58.4199C190.44 57.3457 190.626 56.4375 190.997 55.6953C191.374 54.9531 191.889 54.403 192.54 54.0449C193.191 53.6803 193.933 53.498 194.766 53.498C196.159 53.498 197.214 53.9049 197.93 54.7188C198.646 55.526 199.004 56.6882 199.004 58.2051C199.004 59.2858 198.825 60.1973 198.467 60.9395C198.109 61.6816 197.601 62.2383 196.944 62.6094C196.286 62.974 195.508 63.1562 194.61 63.1562ZM192.286 58.2148C192.286 59.556 192.497 60.5879 192.921 61.3105C193.35 62.0267 193.962 62.3848 194.756 62.3848C195.193 62.3848 195.564 62.2806 195.87 62.0723C196.176 61.8574 196.423 61.571 196.612 61.2129C196.807 60.8548 196.947 60.4414 197.032 59.9727C197.116 59.4974 197.159 59.0026 197.159 58.4883C197.159 57.5312 197.051 56.737 196.837 56.1055C196.628 55.474 196.342 55.0117 195.977 54.7188C195.613 54.4193 195.196 54.2695 194.727 54.2695C193.939 54.2695 193.334 54.6113 192.911 55.2949C192.494 55.9785 192.286 56.9518 192.286 58.2148ZM213.899 63H210.051V62.5215C210.305 62.4434 210.487 62.375 210.598 62.3164C210.709 62.2578 210.8 62.1764 210.871 62.0723C210.949 61.9681 211.008 61.8086 211.047 61.5938C211.093 61.3724 211.115 61.0404 211.115 60.5977V58.0391C211.115 57.5833 211.102 57.1699 211.076 56.7988C211.05 56.4277 211.005 56.125 210.94 55.8906C210.881 55.6497 210.806 55.4642 210.715 55.334C210.63 55.1973 210.526 55.0833 210.403 54.9922C210.285 54.8945 210.149 54.8197 209.992 54.7676C209.836 54.709 209.631 54.6797 209.377 54.6797C209.123 54.6797 208.882 54.7318 208.654 54.8359C208.427 54.9336 208.176 55.1061 207.903 55.3535C207.629 55.6009 207.431 55.8451 207.307 56.0859C207.183 56.3268 207.121 56.6035 207.121 56.916V60.5586C207.121 61.1185 207.147 61.5091 207.199 61.7305C207.252 61.9453 207.349 62.1113 207.492 62.2285C207.642 62.3392 207.883 62.4368 208.215 62.5215V63H204.387V62.5215C204.641 62.4434 204.82 62.375 204.924 62.3164C205.035 62.2578 205.126 62.1764 205.197 62.0723C205.276 61.9681 205.334 61.8086 205.373 61.5938C205.419 61.3789 205.442 61.0436 205.442 60.5879V56.3301C205.442 55.9134 205.435 55.5781 205.422 55.3242C205.409 55.0703 205.363 54.8685 205.285 54.7188C205.207 54.5625 205.087 54.4486 204.924 54.377C204.768 54.2988 204.543 54.2337 204.25 54.1816V53.6641L206.535 53.5762H207.131L207.024 55.168L207.16 55.207C207.642 54.7188 208.029 54.3704 208.322 54.1621C208.622 53.9538 208.921 53.7943 209.221 53.6836C209.527 53.5664 209.849 53.5078 210.188 53.5078C210.539 53.5078 210.852 53.5501 211.125 53.6348C211.405 53.7129 211.649 53.8366 211.858 54.0059C212.072 54.1751 212.248 54.3867 212.385 54.6406C212.522 54.888 212.623 55.1875 212.688 55.5391C212.759 55.8906 212.795 56.3366 212.795 56.877V60.5586C212.795 61.0078 212.808 61.3333 212.834 61.5352C212.86 61.737 212.906 61.8932 212.971 62.0039C213.036 62.1146 213.13 62.209 213.254 62.2871C213.378 62.3587 213.593 62.4368 213.899 62.5215V63Z" fill="white"/>
<line x1="60" y1="19.25" y2="19.25" stroke="white" stroke-width="0.5"/>
<line x1="0.25" y1="19" x2="0.25" y2="79" stroke="white" stroke-width="0.5"/>
<line y1="78.75" x2="300" y2="78.75" stroke="white" stroke-width="0.5"/>
<line x1="299.75" y1="79" x2="299.75" y2="19" stroke="white" stroke-width="0.5"/>
<line x1="300" y1="19.25" x2="240" y2="19.25" stroke="white" stroke-width="0.5"/>
</svg>
