<svg width="436" height="346" viewBox="0 0 436 346" fill="none" xmlns="http://www.w3.org/2000/svg">
<path d="M5.12695 267V261.58H12.5977C20.8984 261.58 26.8555 258.895 30.4688 253.523C32.6172 250.398 33.6914 243.172 33.6914 231.844V103.523C33.6914 91.0234 32.3242 83.2598 29.5898 80.2324C25.7812 75.9355 20.1172 73.7871 12.5977 73.7871H5.12695V68.3672H85.9863C115.674 68.3672 138.232 71.7363 153.662 78.4746C169.189 85.2129 181.641 96.4434 191.016 112.166C200.488 127.791 205.225 145.955 205.225 166.658C205.225 181.307 202.832 194.783 198.047 207.088C193.359 219.393 186.328 229.988 176.953 238.875C167.676 247.664 156.055 254.549 142.09 259.529C128.223 264.51 112.158 267 93.8965 267H5.12695ZM61.8164 252.645C74.0234 255.379 84.4238 256.746 93.0176 256.746C104.248 256.746 114.648 254.695 124.219 250.594C133.887 246.395 142.236 240.486 149.268 232.869C156.299 225.154 161.816 215.828 165.82 204.891C169.824 193.953 171.826 181.697 171.826 168.123C171.826 154.451 169.824 142.146 165.82 131.209C161.914 120.271 156.396 110.994 149.268 103.377C142.236 95.6621 133.789 89.7539 123.926 85.6523C114.16 81.5508 103.467 79.5 91.8457 79.5C87.4512 79.5 82.7637 79.8906 77.7832 80.6719C72.8027 81.3555 67.4805 82.3809 61.8164 83.748V252.645ZM306.445 156.844L379.688 229.646C391.699 241.658 401.953 249.861 410.449 254.256C419.043 258.553 427.539 260.994 435.938 261.58V267H341.455V261.58C347.119 261.58 351.172 260.652 353.613 258.797C356.152 256.844 357.422 254.695 357.422 252.352C357.422 251.18 357.373 250.154 357.275 249.275C357.178 248.299 356.787 247.273 356.104 246.199C355.518 245.125 354.492 243.758 353.027 242.098C351.66 240.438 349.609 238.289 346.875 235.652L278.32 167.83V231.844C278.32 236.531 278.418 240.34 278.613 243.27C278.809 246.199 279.15 248.592 279.639 250.447C280.225 252.303 281.055 253.816 282.129 254.988C283.203 256.062 284.619 257.088 286.377 258.064C290.576 260.408 295.02 261.58 299.707 261.58H306.445V267H221.777V261.58H228.809C237.109 261.58 243.066 259.188 246.68 254.402C249.023 251.375 250.195 243.855 250.195 231.844V103.523C250.195 99.0312 250.098 95.3203 249.902 92.3906C249.805 89.4609 249.463 87.0684 248.877 85.2129C248.291 83.2598 247.461 81.6973 246.387 80.5254C245.41 79.3535 244.043 78.2793 242.285 77.3027C237.988 74.959 233.496 73.7871 228.809 73.7871H221.777V68.3672H306.445V73.7871H299.707C297.852 73.7871 295.898 73.9824 293.848 74.373C291.895 74.7637 289.99 75.3984 288.135 76.2773C286.377 77.0586 284.766 78.1328 283.301 79.5C281.836 80.7695 280.762 82.332 280.078 84.1875C278.906 87.3125 278.32 93.7578 278.32 103.523V164.314C282.129 161.189 286.475 157.381 291.357 152.889C296.24 148.396 301.221 143.66 306.299 138.68C311.475 133.699 316.553 128.719 321.533 123.738C326.611 118.758 331.201 114.168 335.303 109.969C339.404 105.672 342.822 101.961 345.557 98.8359C348.389 95.7109 350.195 93.6113 350.977 92.5371C353.613 88.6309 354.932 85.2129 354.932 82.2832C354.932 80.0371 353.906 78.084 351.855 76.4238C349.902 74.666 346.436 73.7871 341.455 73.7871H336.914V68.3672H409.863V73.7871C405.566 73.9824 401.66 74.5684 398.145 75.5449C396.387 76.1309 394.434 76.9121 392.285 77.8887C390.137 78.8652 387.744 80.1836 385.107 81.8438C382.568 83.5039 379.736 85.5547 376.611 87.9961C373.584 90.3398 370.215 93.2207 366.504 96.6387L306.445 156.844Z" fill="white"/>
<rect x="7" y="139" width="374" height="59" fill="#333333"/>
<path d="M55.0928 151.138V162.588H54.1895C53.8965 160.391 53.3675 158.641 52.6025 157.339C52.2282 156.688 51.7562 156.102 51.1865 155.581C50.6331 155.06 50.0228 154.621 49.3555 154.263C48.7044 153.888 48.0046 153.604 47.2559 153.408C46.5234 153.197 45.7829 153.091 45.0342 153.091C44.2041 153.091 43.431 153.237 42.7148 153.53C41.9987 153.807 41.3721 154.181 40.835 154.653C40.3141 155.125 39.9072 155.671 39.6143 156.289C39.3213 156.891 39.1748 157.518 39.1748 158.169C39.1748 159.08 39.3864 159.878 39.8096 160.562C40.2327 161.229 40.8105 161.847 41.543 162.417C42.2917 162.987 43.1624 163.54 44.1553 164.077C45.1644 164.614 46.2549 165.192 47.4268 165.811C48.7451 166.51 49.9984 167.194 51.1865 167.861C52.3747 168.529 53.4163 169.269 54.3115 170.083C55.223 170.881 55.9473 171.8 56.4844 172.842C57.0215 173.867 57.29 175.104 57.29 176.553C57.29 177.79 57.0296 178.97 56.5088 180.093C56.0042 181.2 55.2881 182.176 54.3604 183.022C53.4489 183.853 52.3503 184.512 51.0645 185C49.7949 185.505 48.3952 185.757 46.8652 185.757C46.2956 185.757 45.8073 185.749 45.4004 185.732C44.9935 185.716 44.6029 185.675 44.2285 185.61C43.8542 185.562 43.4635 185.472 43.0566 185.342C42.666 185.228 42.194 185.065 41.6406 184.854C41.25 184.707 40.8512 184.577 40.4443 184.463C40.0374 184.333 39.6631 184.227 39.3213 184.146C38.9795 184.064 38.6865 183.999 38.4424 183.95C38.2145 183.901 38.068 183.877 38.0029 183.877C37.596 183.877 37.2705 183.999 37.0264 184.243C36.7985 184.487 36.6276 184.992 36.5137 185.757H35.6104V174.404H36.5137C36.7253 175.592 36.9694 176.634 37.2461 177.529C37.5391 178.408 37.8646 179.149 38.2227 179.751C38.5807 180.337 39.0446 180.882 39.6143 181.387C40.1839 181.891 40.8187 182.331 41.5186 182.705C42.2347 183.063 42.9997 183.348 43.8135 183.56C44.6436 183.755 45.4899 183.853 46.3525 183.853C47.3779 183.853 48.2975 183.706 49.1113 183.413C49.9251 183.12 50.6169 182.729 51.1865 182.241C51.7562 181.737 52.1875 181.159 52.4805 180.508C52.7897 179.84 52.9443 179.149 52.9443 178.433C52.9443 177.375 52.7246 176.488 52.2852 175.771C51.8457 175.039 51.2516 174.388 50.5029 173.818C49.7705 173.249 48.9079 172.703 47.915 172.183C46.9385 171.662 45.9049 171.076 44.8145 170.425C43.5775 169.692 42.3812 169.001 41.2256 168.35C40.0863 167.682 39.0771 166.958 38.1982 166.177C37.3193 165.379 36.6113 164.476 36.0742 163.467C35.5534 162.458 35.293 161.253 35.293 159.854C35.293 158.682 35.5371 157.567 36.0254 156.509C36.5137 155.451 37.1891 154.523 38.0518 153.726C38.9144 152.928 39.9316 152.301 41.1035 151.846C42.2917 151.374 43.5856 151.138 44.9854 151.138C46.7106 151.138 48.5742 151.569 50.5762 152.432C51.4551 152.839 52.098 153.042 52.5049 153.042C52.9281 153.042 53.2699 152.92 53.5303 152.676C53.807 152.415 54.0267 151.903 54.1895 151.138H55.0928ZM125.278 167.251H140.659V157.778C140.659 156.997 140.643 156.362 140.61 155.874C140.578 155.386 140.513 154.987 140.415 154.678C140.334 154.352 140.203 154.1 140.024 153.921C139.845 153.726 139.609 153.547 139.316 153.384C138.6 152.993 137.86 152.798 137.095 152.798H135.923V151.895H150.107L150.083 152.798H148.911C148.602 152.798 148.276 152.83 147.935 152.896C147.593 152.961 147.267 153.066 146.958 153.213C146.649 153.359 146.372 153.547 146.128 153.774C145.9 153.986 145.729 154.246 145.615 154.556C145.436 155.093 145.347 156.167 145.347 157.778V179.141C145.347 179.922 145.363 180.557 145.396 181.045C145.428 181.533 145.485 181.94 145.566 182.266C145.664 182.575 145.794 182.819 145.957 182.998C146.136 183.177 146.372 183.348 146.665 183.511C147.365 183.901 148.114 184.097 148.911 184.097H150.083V185H135.923V184.097H137.095C138.429 184.097 139.414 183.698 140.049 182.9C140.456 182.396 140.659 181.143 140.659 179.141V169.058H125.278V179.141C125.278 179.922 125.295 180.557 125.327 181.045C125.36 181.533 125.417 181.932 125.498 182.241C125.596 182.55 125.734 182.803 125.913 182.998C126.092 183.177 126.328 183.348 126.621 183.511C127.321 183.901 128.062 184.097 128.843 184.097H130.039V185H115.854V184.097H117.026C118.41 184.097 119.403 183.698 120.005 182.9C120.396 182.396 120.591 181.143 120.591 179.141V157.778C120.591 156.997 120.575 156.362 120.542 155.874C120.509 155.386 120.444 154.987 120.347 154.678C120.265 154.352 120.135 154.1 119.956 153.921C119.793 153.726 119.565 153.547 119.272 153.384C118.556 152.993 117.808 152.798 117.026 152.798H115.854V151.895H130.039V152.798H128.843C128.517 152.798 128.184 152.83 127.842 152.896C127.516 152.961 127.199 153.066 126.89 153.213C126.597 153.359 126.328 153.547 126.084 153.774C125.856 153.986 125.685 154.246 125.571 154.556C125.376 155.076 125.278 156.151 125.278 157.778V167.251ZM224.419 151.138C228.7 151.138 232.419 152.773 235.576 156.045C238.734 159.3 240.312 163.369 240.312 168.252C240.312 173.281 238.726 177.456 235.552 180.776C232.378 184.097 228.537 185.757 224.028 185.757C219.455 185.757 215.622 184.137 212.529 180.898C209.437 177.66 207.891 173.468 207.891 168.325C207.891 163.068 209.681 158.779 213.262 155.459C216.37 152.578 220.09 151.138 224.419 151.138ZM223.955 152.92C222.279 152.92 220.789 153.278 219.487 153.994C218.185 154.71 217.087 155.736 216.191 157.07C215.312 158.389 214.637 159.992 214.165 161.88C213.709 163.768 213.481 165.884 213.481 168.228C213.481 170.555 213.709 172.687 214.165 174.624C214.621 176.561 215.288 178.229 216.167 179.629C217.062 181.012 218.161 182.095 219.463 182.876C220.765 183.641 222.271 184.023 223.979 184.023C225.509 184.023 226.925 183.73 228.228 183.145C229.546 182.559 230.685 181.655 231.646 180.435C232.606 179.198 233.354 177.627 233.892 175.723C234.445 173.818 234.722 171.548 234.722 168.911C234.722 166.388 234.494 164.142 234.038 162.173C233.599 160.187 232.923 158.511 232.012 157.144C231.117 155.776 229.993 154.735 228.643 154.019C227.308 153.286 225.745 152.92 223.955 152.92ZM326.196 151.895V159.658H325.635C325.505 158.617 325.285 157.738 324.976 157.021C324.683 156.289 324.292 155.703 323.804 155.264C323.315 154.808 322.721 154.482 322.021 154.287C321.322 154.076 320.508 153.97 319.58 153.97H314.917V179.263C314.917 181.297 315.137 182.567 315.576 183.071C316.178 183.755 317.131 184.097 318.433 184.097H319.58V185H305.542V184.097H306.714C308.114 184.097 309.106 183.674 309.692 182.827C310.05 182.323 310.229 181.134 310.229 179.263V153.97H306.25C305.241 153.97 304.362 154.043 303.613 154.189C302.865 154.336 302.23 154.613 301.709 155.02C301.188 155.426 300.765 156.004 300.439 156.753C300.114 157.502 299.87 158.47 299.707 159.658H298.779V151.895H326.196Z" fill="white"/>
</svg>
