<svg width="436" height="263" viewBox="0 0 436 263" fill="none" xmlns="http://www.w3.org/2000/svg">
<path d="M5.12695 253V247.58H12.5977C20.8984 247.58 26.8555 244.895 30.4688 239.523C32.6172 236.398 33.6914 229.172 33.6914 217.844V89.5234C33.6914 77.0234 32.3242 69.2598 29.5898 66.2324C25.7812 61.9355 20.1172 59.7871 12.5977 59.7871H5.12695V54.3672H85.9863C115.674 54.3672 138.232 57.7363 153.662 64.4746C169.189 71.2129 181.641 82.4434 191.016 98.166C200.488 113.791 205.225 131.955 205.225 152.658C205.225 167.307 202.832 180.783 198.047 193.088C193.359 205.393 186.328 215.988 176.953 224.875C167.676 233.664 156.055 240.549 142.09 245.529C128.223 250.51 112.158 253 93.8965 253H5.12695ZM61.8164 238.645C74.0234 241.379 84.4238 242.746 93.0176 242.746C104.248 242.746 114.648 240.695 124.219 236.594C133.887 232.395 142.236 226.486 149.268 218.869C156.299 211.154 161.816 201.828 165.82 190.891C169.824 179.953 171.826 167.697 171.826 154.123C171.826 140.451 169.824 128.146 165.82 117.209C161.914 106.271 156.396 96.9941 149.268 89.377C142.236 81.6621 133.789 75.7539 123.926 71.6523C114.16 67.5508 103.467 65.5 91.8457 65.5C87.4512 65.5 82.7637 65.8906 77.7832 66.6719C72.8027 67.3555 67.4805 68.3809 61.8164 69.748V238.645ZM306.445 142.844L379.688 215.646C391.699 227.658 401.953 235.861 410.449 240.256C419.043 244.553 427.539 246.994 435.938 247.58V253H341.455V247.58C347.119 247.58 351.172 246.652 353.613 244.797C356.152 242.844 357.422 240.695 357.422 238.352C357.422 237.18 357.373 236.154 357.275 235.275C357.178 234.299 356.787 233.273 356.104 232.199C355.518 231.125 354.492 229.758 353.027 228.098C351.66 226.438 349.609 224.289 346.875 221.652L278.32 153.83V217.844C278.32 222.531 278.418 226.34 278.613 229.27C278.809 232.199 279.15 234.592 279.639 236.447C280.225 238.303 281.055 239.816 282.129 240.988C283.203 242.062 284.619 243.088 286.377 244.064C290.576 246.408 295.02 247.58 299.707 247.58H306.445V253H221.777V247.58H228.809C237.109 247.58 243.066 245.188 246.68 240.402C249.023 237.375 250.195 229.855 250.195 217.844V89.5234C250.195 85.0312 250.098 81.3203 249.902 78.3906C249.805 75.4609 249.463 73.0684 248.877 71.2129C248.291 69.2598 247.461 67.6973 246.387 66.5254C245.41 65.3535 244.043 64.2793 242.285 63.3027C237.988 60.959 233.496 59.7871 228.809 59.7871H221.777V54.3672H306.445V59.7871H299.707C297.852 59.7871 295.898 59.9824 293.848 60.373C291.895 60.7637 289.99 61.3984 288.135 62.2773C286.377 63.0586 284.766 64.1328 283.301 65.5C281.836 66.7695 280.762 68.332 280.078 70.1875C278.906 73.3125 278.32 79.7578 278.32 89.5234V150.314C282.129 147.189 286.475 143.381 291.357 138.889C296.24 134.396 301.221 129.66 306.299 124.68C311.475 119.699 316.553 114.719 321.533 109.738C326.611 104.758 331.201 100.168 335.303 95.9688C339.404 91.6719 342.822 87.9609 345.557 84.8359C348.389 81.7109 350.195 79.6113 350.977 78.5371C353.613 74.6309 354.932 71.2129 354.932 68.2832C354.932 66.0371 353.906 64.084 351.855 62.4238C349.902 60.666 346.436 59.7871 341.455 59.7871H336.914V54.3672H409.863V59.7871C405.566 59.9824 401.66 60.5684 398.145 61.5449C396.387 62.1309 394.434 62.9121 392.285 63.8887C390.137 64.8652 387.744 66.1836 385.107 67.8438C382.568 69.5039 379.736 71.5547 376.611 73.9961C373.584 76.3398 370.215 79.2207 366.504 82.6387L306.445 142.844Z" fill="white"/>
<rect x="7" y="144" width="374" height="48.6426" fill="#333333"/>
<path d="M55.0928 150.435V161.886H54.1895C53.8965 159.688 53.3675 157.939 52.6025 156.637C52.2282 155.986 51.7562 155.4 51.1865 154.879C50.6331 154.358 50.0228 153.919 49.3555 153.56C48.7044 153.186 48.0046 152.901 47.2559 152.706C46.5234 152.494 45.7829 152.389 45.0342 152.389C44.2041 152.389 43.431 152.535 42.7148 152.828C41.9987 153.105 41.3721 153.479 40.835 153.951C40.3141 154.423 39.9072 154.968 39.6143 155.587C39.3213 156.189 39.1748 156.816 39.1748 157.467C39.1748 158.378 39.3864 159.176 39.8096 159.859C40.2327 160.527 40.8105 161.145 41.543 161.715C42.2917 162.284 43.1624 162.838 44.1553 163.375C45.1644 163.912 46.2549 164.49 47.4268 165.108C48.7451 165.808 49.9984 166.492 51.1865 167.159C52.3747 167.826 53.4163 168.567 54.3115 169.381C55.223 170.178 55.9473 171.098 56.4844 172.14C57.0215 173.165 57.29 174.402 57.29 175.851C57.29 177.088 57.0296 178.268 56.5088 179.391C56.0042 180.497 55.2881 181.474 54.3604 182.32C53.4489 183.15 52.3503 183.81 51.0645 184.298C49.7949 184.802 48.3952 185.055 46.8652 185.055C46.2956 185.055 45.8073 185.046 45.4004 185.03C44.9935 185.014 44.6029 184.973 44.2285 184.908C43.8542 184.859 43.4635 184.77 43.0566 184.64C42.666 184.526 42.194 184.363 41.6406 184.151C41.25 184.005 40.8512 183.875 40.4443 183.761C40.0374 183.63 39.6631 183.525 39.3213 183.443C38.9795 183.362 38.6865 183.297 38.4424 183.248C38.2145 183.199 38.068 183.175 38.0029 183.175C37.596 183.175 37.2705 183.297 37.0264 183.541C36.7985 183.785 36.6276 184.29 36.5137 185.055H35.6104V173.702H36.5137C36.7253 174.89 36.9694 175.932 37.2461 176.827C37.5391 177.706 37.8646 178.447 38.2227 179.049C38.5807 179.635 39.0446 180.18 39.6143 180.685C40.1839 181.189 40.8187 181.629 41.5186 182.003C42.2347 182.361 42.9997 182.646 43.8135 182.857C44.6436 183.053 45.4899 183.15 46.3525 183.15C47.3779 183.15 48.2975 183.004 49.1113 182.711C49.9251 182.418 50.6169 182.027 51.1865 181.539C51.7562 181.034 52.1875 180.457 52.4805 179.806C52.7897 179.138 52.9443 178.447 52.9443 177.73C52.9443 176.672 52.7246 175.785 52.2852 175.069C51.8457 174.337 51.2516 173.686 50.5029 173.116C49.7705 172.546 48.9079 172.001 47.915 171.48C46.9385 170.96 45.9049 170.374 44.8145 169.723C43.5775 168.99 42.3812 168.298 41.2256 167.647C40.0863 166.98 39.0771 166.256 38.1982 165.475C37.3193 164.677 36.6113 163.774 36.0742 162.765C35.5534 161.755 35.293 160.551 35.293 159.151C35.293 157.979 35.5371 156.865 36.0254 155.807C36.5137 154.749 37.1891 153.821 38.0518 153.023C38.9144 152.226 39.9316 151.599 41.1035 151.143C42.2917 150.671 43.5856 150.435 44.9854 150.435C46.7106 150.435 48.5742 150.867 50.5762 151.729C51.4551 152.136 52.098 152.34 52.5049 152.34C52.9281 152.34 53.2699 152.218 53.5303 151.974C53.807 151.713 54.0267 151.2 54.1895 150.435H55.0928ZM125.278 166.549H140.659V157.076C140.659 156.295 140.643 155.66 140.61 155.172C140.578 154.684 140.513 154.285 140.415 153.976C140.334 153.65 140.203 153.398 140.024 153.219C139.845 153.023 139.609 152.844 139.316 152.682C138.6 152.291 137.86 152.096 137.095 152.096H135.923V151.192H150.107L150.083 152.096H148.911C148.602 152.096 148.276 152.128 147.935 152.193C147.593 152.258 147.267 152.364 146.958 152.511C146.649 152.657 146.372 152.844 146.128 153.072C145.9 153.284 145.729 153.544 145.615 153.853C145.436 154.391 145.347 155.465 145.347 157.076V178.438C145.347 179.22 145.363 179.854 145.396 180.343C145.428 180.831 145.485 181.238 145.566 181.563C145.664 181.873 145.794 182.117 145.957 182.296C146.136 182.475 146.372 182.646 146.665 182.809C147.365 183.199 148.114 183.394 148.911 183.394H150.083V184.298H135.923V183.394H137.095C138.429 183.394 139.414 182.996 140.049 182.198C140.456 181.694 140.659 180.44 140.659 178.438V168.355H125.278V178.438C125.278 179.22 125.295 179.854 125.327 180.343C125.36 180.831 125.417 181.23 125.498 181.539C125.596 181.848 125.734 182.101 125.913 182.296C126.092 182.475 126.328 182.646 126.621 182.809C127.321 183.199 128.062 183.394 128.843 183.394H130.039V184.298H115.854V183.394H117.026C118.41 183.394 119.403 182.996 120.005 182.198C120.396 181.694 120.591 180.44 120.591 178.438V157.076C120.591 156.295 120.575 155.66 120.542 155.172C120.509 154.684 120.444 154.285 120.347 153.976C120.265 153.65 120.135 153.398 119.956 153.219C119.793 153.023 119.565 152.844 119.272 152.682C118.556 152.291 117.808 152.096 117.026 152.096H115.854V151.192H130.039V152.096H128.843C128.517 152.096 128.184 152.128 127.842 152.193C127.516 152.258 127.199 152.364 126.89 152.511C126.597 152.657 126.328 152.844 126.084 153.072C125.856 153.284 125.685 153.544 125.571 153.853C125.376 154.374 125.278 155.449 125.278 157.076V166.549ZM224.419 150.435C228.7 150.435 232.419 152.071 235.576 155.343C238.734 158.598 240.312 162.667 240.312 167.55C240.312 172.579 238.726 176.754 235.552 180.074C232.378 183.394 228.537 185.055 224.028 185.055C219.455 185.055 215.622 183.435 212.529 180.196C209.437 176.957 207.891 172.766 207.891 167.623C207.891 162.366 209.681 158.077 213.262 154.757C216.37 151.876 220.09 150.435 224.419 150.435ZM223.955 152.218C222.279 152.218 220.789 152.576 219.487 153.292C218.185 154.008 217.087 155.033 216.191 156.368C215.312 157.686 214.637 159.29 214.165 161.178C213.709 163.066 213.481 165.182 213.481 167.525C213.481 169.853 213.709 171.985 214.165 173.922C214.621 175.859 215.288 177.527 216.167 178.927C217.062 180.31 218.161 181.393 219.463 182.174C220.765 182.939 222.271 183.321 223.979 183.321C225.509 183.321 226.925 183.028 228.228 182.442C229.546 181.856 230.685 180.953 231.646 179.732C232.606 178.495 233.354 176.925 233.892 175.02C234.445 173.116 234.722 170.846 234.722 168.209C234.722 165.686 234.494 163.44 234.038 161.471C233.599 159.485 232.923 157.809 232.012 156.441C231.117 155.074 229.993 154.032 228.643 153.316C227.308 152.584 225.745 152.218 223.955 152.218ZM326.196 151.192V158.956H325.635C325.505 157.914 325.285 157.035 324.976 156.319C324.683 155.587 324.292 155.001 323.804 154.561C323.315 154.106 322.721 153.78 322.021 153.585C321.322 153.373 320.508 153.268 319.58 153.268H314.917V178.56C314.917 180.595 315.137 181.865 315.576 182.369C316.178 183.053 317.131 183.394 318.433 183.394H319.58V184.298H305.542V183.394H306.714C308.114 183.394 309.106 182.971 309.692 182.125C310.05 181.62 310.229 180.432 310.229 178.56V153.268H306.25C305.241 153.268 304.362 153.341 303.613 153.487C302.865 153.634 302.23 153.91 301.709 154.317C301.188 154.724 300.765 155.302 300.439 156.051C300.114 156.799 299.87 157.768 299.707 158.956H298.779V151.192H326.196Z" fill="white"/>
</svg>
