<svg width="431" height="266" viewBox="0 0 431 266" fill="none" xmlns="http://www.w3.org/2000/svg">
<path d="M19.307 243.864C21.547 243.864 23.179 244.304 24.203 245.184C25.227 246.064 25.739 247.304 25.739 248.904C25.739 249.608 25.619 250.288 25.379 250.944C25.155 251.584 24.779 252.16 24.251 252.672C23.723 253.184 23.019 253.592 22.139 253.896C21.259 254.184 20.179 254.328 18.899 254.328H16.931V261H14.771V243.864H19.307ZM19.115 245.712H16.931V252.48H18.659C19.747 252.48 20.651 252.368 21.371 252.144C22.091 251.904 22.627 251.528 22.979 251.016C23.331 250.504 23.507 249.832 23.507 249C23.507 247.896 23.155 247.072 22.451 246.528C21.747 245.984 20.635 245.712 19.115 245.712ZM62.8302 243.864C64.2542 243.864 65.4222 244.048 66.3342 244.416C67.2622 244.768 67.9502 245.304 68.3982 246.024C68.8462 246.744 69.0702 247.648 69.0702 248.736C69.0702 249.648 68.9022 250.408 68.5662 251.016C68.2302 251.624 67.7982 252.112 67.2702 252.48C66.7582 252.832 66.2142 253.112 65.6382 253.32L70.3422 261H67.8222L63.6702 253.92H60.2622V261H58.1022V243.864H62.8302ZM62.7102 245.736H60.2622V252.096H62.8302C63.7582 252.096 64.5182 251.976 65.1102 251.736C65.7022 251.48 66.1342 251.112 66.4062 250.632C66.6942 250.152 66.8382 249.552 66.8382 248.832C66.8382 248.08 66.6862 247.48 66.3822 247.032C66.0942 246.584 65.6462 246.256 65.0382 246.048C64.4302 245.84 63.6542 245.736 62.7102 245.736ZM116.784 252.408C116.784 253.736 116.616 254.944 116.28 256.032C115.944 257.104 115.44 258.032 114.768 258.816C114.112 259.6 113.288 260.2 112.296 260.616C111.32 261.032 110.184 261.24 108.888 261.24C107.544 261.24 106.376 261.032 105.384 260.616C104.392 260.184 103.568 259.584 102.912 258.816C102.256 258.032 101.768 257.096 101.448 256.008C101.128 254.92 100.968 253.712 100.968 252.384C100.968 250.624 101.256 249.088 101.832 247.776C102.408 246.464 103.28 245.44 104.448 244.704C105.632 243.968 107.12 243.6 108.912 243.6C110.624 243.6 112.064 243.968 113.232 244.704C114.4 245.424 115.28 246.448 115.872 247.776C116.48 249.088 116.784 250.632 116.784 252.408ZM103.248 252.408C103.248 253.848 103.448 255.088 103.848 256.128C104.248 257.168 104.864 257.968 105.696 258.528C106.544 259.088 107.608 259.368 108.888 259.368C110.184 259.368 111.24 259.088 112.056 258.528C112.888 257.968 113.504 257.168 113.904 256.128C114.304 255.088 114.504 253.848 114.504 252.408C114.504 250.248 114.056 248.56 113.16 247.344C112.264 246.112 110.848 245.496 108.912 245.496C107.616 245.496 106.544 245.776 105.696 246.336C104.864 246.88 104.248 247.672 103.848 248.712C103.448 249.736 103.248 250.968 103.248 252.408ZM163.11 252.264C163.11 254.184 162.75 255.792 162.03 257.088C161.326 258.384 160.31 259.36 158.982 260.016C157.654 260.672 156.046 261 154.158 261H149.382V243.864H154.662C156.39 243.864 157.886 244.184 159.15 244.824C160.414 245.464 161.39 246.408 162.078 247.656C162.766 248.888 163.11 250.424 163.11 252.264ZM160.83 252.336C160.83 250.816 160.574 249.568 160.062 248.592C159.566 247.616 158.83 246.896 157.854 246.432C156.894 245.952 155.726 245.712 154.35 245.712H151.542V259.152H153.87C156.19 259.152 157.926 258.584 159.078 257.448C160.246 256.296 160.83 254.592 160.83 252.336ZM208.745 254.952C208.745 256.136 208.505 257.208 208.025 258.168C207.545 259.112 206.809 259.864 205.817 260.424C204.841 260.968 203.593 261.24 202.073 261.24C199.945 261.24 198.321 260.664 197.201 259.512C196.097 258.344 195.545 256.808 195.545 254.904V243.864H197.705V254.976C197.705 256.368 198.073 257.448 198.809 258.216C199.561 258.984 200.689 259.368 202.193 259.368C203.233 259.368 204.073 259.184 204.713 258.816C205.369 258.432 205.849 257.912 206.153 257.256C206.457 256.584 206.609 255.816 206.609 254.952V243.864H208.745V254.952ZM249.412 245.52C248.5 245.52 247.676 245.68 246.94 246C246.204 246.304 245.58 246.76 245.068 247.368C244.556 247.96 244.164 248.688 243.892 249.552C243.62 250.4 243.484 251.36 243.484 252.432C243.484 253.84 243.7 255.064 244.132 256.104C244.58 257.144 245.236 257.944 246.1 258.504C246.98 259.064 248.076 259.344 249.388 259.344C250.14 259.344 250.852 259.28 251.524 259.152C252.196 259.024 252.852 258.864 253.492 258.672V260.544C252.852 260.784 252.188 260.96 251.5 261.072C250.828 261.184 250.02 261.24 249.076 261.24C247.332 261.24 245.876 260.88 244.708 260.16C243.54 259.44 242.66 258.416 242.068 257.088C241.492 255.76 241.204 254.2 241.204 252.408C241.204 251.112 241.38 249.928 241.732 248.856C242.1 247.784 242.628 246.856 243.316 246.072C244.02 245.288 244.884 244.688 245.908 244.272C246.932 243.84 248.108 243.624 249.436 243.624C250.316 243.624 251.164 243.712 251.98 243.888C252.796 244.064 253.524 244.312 254.164 244.632L253.3 246.456C252.772 246.216 252.18 246 251.524 245.808C250.884 245.616 250.18 245.52 249.412 245.52ZM291.456 261H289.296V245.76H283.944V243.864H296.784V245.76H291.456V261ZM332.992 261H326.8V259.752L328.816 259.296V245.592L326.8 245.112V243.864H332.992V245.112L330.976 245.592V259.296L332.992 259.752V261ZM380.053 252.408C380.053 253.736 379.885 254.944 379.549 256.032C379.213 257.104 378.709 258.032 378.037 258.816C377.381 259.6 376.557 260.2 375.565 260.616C374.589 261.032 373.453 261.24 372.157 261.24C370.813 261.24 369.645 261.032 368.653 260.616C367.661 260.184 366.837 259.584 366.181 258.816C365.525 258.032 365.037 257.096 364.717 256.008C364.397 254.92 364.237 253.712 364.237 252.384C364.237 250.624 364.525 249.088 365.101 247.776C365.677 246.464 366.549 245.44 367.717 244.704C368.901 243.968 370.389 243.6 372.181 243.6C373.893 243.6 375.333 243.968 376.501 244.704C377.669 245.424 378.549 246.448 379.141 247.776C379.749 249.088 380.053 250.632 380.053 252.408ZM366.517 252.408C366.517 253.848 366.717 255.088 367.117 256.128C367.517 257.168 368.133 257.968 368.965 258.528C369.813 259.088 370.877 259.368 372.157 259.368C373.453 259.368 374.509 259.088 375.325 258.528C376.157 257.968 376.773 257.168 377.173 256.128C377.573 255.088 377.773 253.848 377.773 252.408C377.773 250.248 377.325 248.56 376.429 247.344C375.533 246.112 374.117 245.496 372.181 245.496C370.885 245.496 369.813 245.776 368.965 246.336C368.133 246.88 367.517 247.672 367.117 248.712C366.717 249.736 366.517 250.968 366.517 252.408ZM426.235 261H423.715L414.547 246.768H414.451C414.467 247.056 414.483 247.376 414.499 247.728C414.531 248.08 414.555 248.464 414.571 248.88C414.587 249.28 414.603 249.696 414.619 250.128C414.635 250.56 414.643 250.992 414.643 251.424V261H412.651V243.864H415.147L424.291 258.048H424.387C424.371 257.856 424.355 257.592 424.339 257.256C424.323 256.904 424.307 256.52 424.291 256.104C424.275 255.672 424.259 255.232 424.243 254.784C424.227 254.336 424.219 253.92 424.219 253.536V243.864H426.235V261Z" fill="white"/>
<path d="M0.126953 199V193.58H7.59766C15.8984 193.58 21.8555 190.895 25.4688 185.523C27.6172 182.398 28.6914 175.172 28.6914 163.844V35.5234C28.6914 23.0234 27.3242 15.2598 24.5898 12.2324C20.7812 7.93555 15.1172 5.78711 7.59766 5.78711H0.126953V0.367188H80.9863C110.674 0.367188 133.232 3.73633 148.662 10.4746C164.189 17.2129 176.641 28.4434 186.016 44.166C195.488 59.791 200.225 77.9551 200.225 98.6582C200.225 113.307 197.832 126.783 193.047 139.088C188.359 151.393 181.328 161.988 171.953 170.875C162.676 179.664 151.055 186.549 137.09 191.529C123.223 196.51 107.158 199 88.8965 199H0.126953ZM56.8164 184.645C69.0234 187.379 79.4238 188.746 88.0176 188.746C99.248 188.746 109.648 186.695 119.219 182.594C128.887 178.395 137.236 172.486 144.268 164.869C151.299 157.154 156.816 147.828 160.82 136.891C164.824 125.953 166.826 113.697 166.826 100.123C166.826 86.4512 164.824 74.1465 160.82 63.209C156.914 52.2715 151.396 42.9941 144.268 35.377C137.236 27.6621 128.789 21.7539 118.926 17.6523C109.16 13.5508 98.4668 11.5 86.8457 11.5C82.4512 11.5 77.7637 11.8906 72.7832 12.6719C67.8027 13.3555 62.4805 14.3809 56.8164 15.748V184.645Z" fill="white"/>
<path d="M301.445 88.8438L374.688 161.646C386.699 173.658 396.953 181.861 405.449 186.256C414.043 190.553 422.539 192.994 430.938 193.58V199H336.455V193.58C342.119 193.58 346.172 192.652 348.613 190.797C351.152 188.844 352.422 186.695 352.422 184.352C352.422 183.18 352.373 182.154 352.275 181.275C352.178 180.299 351.787 179.273 351.104 178.199C350.518 177.125 349.492 175.758 348.027 174.098C346.66 172.438 344.609 170.289 341.875 167.652L273.32 99.8301V163.844C273.32 168.531 273.418 172.34 273.613 175.27C273.809 178.199 274.15 180.592 274.639 182.447C275.225 184.303 276.055 185.816 277.129 186.988C278.203 188.062 279.619 189.088 281.377 190.064C285.576 192.408 290.02 193.58 294.707 193.58H301.445V199H216.777V193.58H223.809C232.109 193.58 238.066 191.188 241.68 186.402C244.023 183.375 245.195 175.855 245.195 163.844V35.5234C245.195 31.0312 245.098 27.3203 244.902 24.3906C244.805 21.4609 244.463 19.0684 243.877 17.2129C243.291 15.2598 242.461 13.6973 241.387 12.5254C240.41 11.3535 239.043 10.2793 237.285 9.30273C232.988 6.95898 228.496 5.78711 223.809 5.78711H216.777V0.367188H301.445V5.78711H294.707C292.852 5.78711 290.898 5.98242 288.848 6.37305C286.895 6.76367 284.99 7.39844 283.135 8.27734C281.377 9.05859 279.766 10.1328 278.301 11.5C276.836 12.7695 275.762 14.332 275.078 16.1875C273.906 19.3125 273.32 25.7578 273.32 35.5234V96.3145C277.129 93.1895 281.475 89.3809 286.357 84.8887C291.24 80.3965 296.221 75.6602 301.299 70.6797C306.475 65.6992 311.553 60.7188 316.533 55.7383C321.611 50.7578 326.201 46.168 330.303 41.9688C334.404 37.6719 337.822 33.9609 340.557 30.8359C343.389 27.7109 345.195 25.6113 345.977 24.5371C348.613 20.6309 349.932 17.2129 349.932 14.2832C349.932 12.0371 348.906 10.084 346.855 8.42383C344.902 6.66602 341.436 5.78711 336.455 5.78711H331.914V0.367188H404.863V5.78711C400.566 5.98242 396.66 6.56836 393.145 7.54492C391.387 8.13086 389.434 8.91211 387.285 9.88867C385.137 10.8652 382.744 12.1836 380.107 13.8438C377.568 15.5039 374.736 17.5547 371.611 19.9961C368.584 22.3398 365.215 25.2207 361.504 28.6387L301.445 88.8438Z" fill="white"/>
<rect x="12" y="72" width="342" height="58" fill="#333333"/>
<path d="M52.0928 83.1377V94.5879H51.1895C50.8965 92.3906 50.3675 90.641 49.6025 89.3389C49.2282 88.6878 48.7562 88.1019 48.1865 87.5811C47.6331 87.0602 47.0228 86.6208 46.3555 86.2627C45.7044 85.8883 45.0046 85.6035 44.2559 85.4082C43.5234 85.1966 42.7829 85.0908 42.0342 85.0908C41.2041 85.0908 40.431 85.2373 39.7148 85.5303C38.9987 85.807 38.3721 86.1813 37.835 86.6533C37.3141 87.1253 36.9072 87.6706 36.6143 88.2891C36.3213 88.8913 36.1748 89.5179 36.1748 90.1689C36.1748 91.0804 36.3864 91.8779 36.8096 92.5615C37.2327 93.2288 37.8105 93.8473 38.543 94.417C39.2917 94.9867 40.1624 95.54 41.1553 96.0771C42.1644 96.6143 43.2549 97.1921 44.4268 97.8105C45.7451 98.5104 46.9984 99.194 48.1865 99.8613C49.3747 100.529 50.4163 101.269 51.3115 102.083C52.223 102.881 52.9473 103.8 53.4844 104.842C54.0215 105.867 54.29 107.104 54.29 108.553C54.29 109.79 54.0296 110.97 53.5088 112.093C53.0042 113.2 52.2881 114.176 51.3604 115.022C50.4489 115.853 49.3503 116.512 48.0645 117C46.7949 117.505 45.3952 117.757 43.8652 117.757C43.2956 117.757 42.8073 117.749 42.4004 117.732C41.9935 117.716 41.6029 117.675 41.2285 117.61C40.8542 117.562 40.4635 117.472 40.0566 117.342C39.666 117.228 39.194 117.065 38.6406 116.854C38.25 116.707 37.8512 116.577 37.4443 116.463C37.0374 116.333 36.6631 116.227 36.3213 116.146C35.9795 116.064 35.6865 115.999 35.4424 115.95C35.2145 115.901 35.068 115.877 35.0029 115.877C34.596 115.877 34.2705 115.999 34.0264 116.243C33.7985 116.487 33.6276 116.992 33.5137 117.757H32.6104V106.404H33.5137C33.7253 107.592 33.9694 108.634 34.2461 109.529C34.5391 110.408 34.8646 111.149 35.2227 111.751C35.5807 112.337 36.0446 112.882 36.6143 113.387C37.1839 113.891 37.8187 114.331 38.5186 114.705C39.2347 115.063 39.9997 115.348 40.8135 115.56C41.6436 115.755 42.4899 115.853 43.3525 115.853C44.3779 115.853 45.2975 115.706 46.1113 115.413C46.9251 115.12 47.6169 114.729 48.1865 114.241C48.7562 113.737 49.1875 113.159 49.4805 112.508C49.7897 111.84 49.9443 111.149 49.9443 110.433C49.9443 109.375 49.7246 108.488 49.2852 107.771C48.8457 107.039 48.2516 106.388 47.5029 105.818C46.7705 105.249 45.9079 104.703 44.915 104.183C43.9385 103.662 42.9049 103.076 41.8145 102.425C40.5775 101.692 39.3812 101.001 38.2256 100.35C37.0863 99.6823 36.0771 98.958 35.1982 98.1768C34.3193 97.3792 33.6113 96.4759 33.0742 95.4668C32.5534 94.4577 32.293 93.2533 32.293 91.8535C32.293 90.6816 32.5371 89.5667 33.0254 88.5088C33.5137 87.4508 34.1891 86.5231 35.0518 85.7256C35.9144 84.9281 36.9316 84.3014 38.1035 83.8457C39.2917 83.3737 40.5856 83.1377 41.9854 83.1377C43.7106 83.1377 45.5742 83.569 47.5762 84.4316C48.4551 84.8385 49.098 85.042 49.5049 85.042C49.9281 85.042 50.2699 84.9199 50.5303 84.6758C50.807 84.4154 51.0267 83.9027 51.1895 83.1377H52.0928ZM122.278 99.251H137.659V89.7783C137.659 88.9971 137.643 88.3623 137.61 87.874C137.578 87.3857 137.513 86.987 137.415 86.6777C137.334 86.3522 137.203 86.0999 137.024 85.9209C136.845 85.7256 136.609 85.5465 136.316 85.3838C135.6 84.9932 134.86 84.7979 134.095 84.7979H132.923V83.8945H147.107L147.083 84.7979H145.911C145.602 84.7979 145.276 84.8304 144.935 84.8955C144.593 84.9606 144.267 85.0664 143.958 85.2129C143.649 85.3594 143.372 85.5465 143.128 85.7744C142.9 85.986 142.729 86.2464 142.615 86.5557C142.436 87.0928 142.347 88.167 142.347 89.7783V111.141C142.347 111.922 142.363 112.557 142.396 113.045C142.428 113.533 142.485 113.94 142.566 114.266C142.664 114.575 142.794 114.819 142.957 114.998C143.136 115.177 143.372 115.348 143.665 115.511C144.365 115.901 145.114 116.097 145.911 116.097H147.083V117H132.923V116.097H134.095C135.429 116.097 136.414 115.698 137.049 114.9C137.456 114.396 137.659 113.143 137.659 111.141V101.058H122.278V111.141C122.278 111.922 122.295 112.557 122.327 113.045C122.36 113.533 122.417 113.932 122.498 114.241C122.596 114.55 122.734 114.803 122.913 114.998C123.092 115.177 123.328 115.348 123.621 115.511C124.321 115.901 125.062 116.097 125.843 116.097H127.039V117H112.854V116.097H114.026C115.41 116.097 116.403 115.698 117.005 114.9C117.396 114.396 117.591 113.143 117.591 111.141V89.7783C117.591 88.9971 117.575 88.3623 117.542 87.874C117.509 87.3857 117.444 86.987 117.347 86.6777C117.265 86.3522 117.135 86.0999 116.956 85.9209C116.793 85.7256 116.565 85.5465 116.272 85.3838C115.556 84.9932 114.808 84.7979 114.026 84.7979H112.854V83.8945H127.039V84.7979H125.843C125.517 84.7979 125.184 84.8304 124.842 84.8955C124.516 84.9606 124.199 85.0664 123.89 85.2129C123.597 85.3594 123.328 85.5465 123.084 85.7744C122.856 85.986 122.685 86.2464 122.571 86.5557C122.376 87.0765 122.278 88.1507 122.278 89.7783V99.251ZM221.419 83.1377C225.7 83.1377 229.419 84.7734 232.576 88.0449C235.734 91.3001 237.312 95.3691 237.312 100.252C237.312 105.281 235.726 109.456 232.552 112.776C229.378 116.097 225.537 117.757 221.028 117.757C216.455 117.757 212.622 116.137 209.529 112.898C206.437 109.66 204.891 105.468 204.891 100.325C204.891 95.068 206.681 90.7793 210.262 87.459C213.37 84.5781 217.09 83.1377 221.419 83.1377ZM220.955 84.9199C219.279 84.9199 217.789 85.278 216.487 85.9941C215.185 86.7103 214.087 87.7357 213.191 89.0703C212.312 90.3887 211.637 91.9919 211.165 93.8799C210.709 95.7679 210.481 97.8838 210.481 100.228C210.481 102.555 210.709 104.687 211.165 106.624C211.621 108.561 212.288 110.229 213.167 111.629C214.062 113.012 215.161 114.095 216.463 114.876C217.765 115.641 219.271 116.023 220.979 116.023C222.509 116.023 223.925 115.73 225.228 115.145C226.546 114.559 227.685 113.655 228.646 112.435C229.606 111.198 230.354 109.627 230.892 107.723C231.445 105.818 231.722 103.548 231.722 100.911C231.722 98.3883 231.494 96.1423 231.038 94.1729C230.599 92.1872 229.923 90.5107 229.012 89.1436C228.117 87.7764 226.993 86.7347 225.643 86.0186C224.308 85.2861 222.745 84.9199 220.955 84.9199ZM323.196 83.8945V91.6582H322.635C322.505 90.6165 322.285 89.7376 321.976 89.0215C321.683 88.2891 321.292 87.7031 320.804 87.2637C320.315 86.8079 319.721 86.4824 319.021 86.2871C318.322 86.0755 317.508 85.9697 316.58 85.9697H311.917V111.263C311.917 113.297 312.137 114.567 312.576 115.071C313.178 115.755 314.131 116.097 315.433 116.097H316.58V117H302.542V116.097H303.714C305.114 116.097 306.106 115.674 306.692 114.827C307.05 114.323 307.229 113.134 307.229 111.263V85.9697H303.25C302.241 85.9697 301.362 86.043 300.613 86.1895C299.865 86.3359 299.23 86.6126 298.709 87.0195C298.188 87.4264 297.765 88.0042 297.439 88.7529C297.114 89.5016 296.87 90.4701 296.707 91.6582H295.779V83.8945H323.196Z" fill="white"/>
</svg>
