<svg width="34" height="34" viewBox="0 0 34 34" fill="none" xmlns="http://www.w3.org/2000/svg">
<path d="M16.6667 2.77783C9.00005 2.77783 2.77783 9.00005 2.77783 16.6667C2.77783 24.3334 9.00005 30.5556 16.6667 30.5556C24.3334 30.5556 30.5556 24.3334 30.5556 16.6667C30.5556 9.00005 24.3334 2.77783 16.6667 2.77783ZM23.1112 12.2223C22.9028 14.4167 22.0001 19.7501 21.5417 22.2084C21.3473 23.2501 20.9584 23.5973 20.5973 23.6389C19.7917 23.7084 19.1806 23.1112 18.4028 22.5973C17.1806 21.7917 16.4862 21.2917 15.3056 20.5139C13.9306 19.6112 14.8195 19.1112 15.6112 18.3056C15.8195 18.0973 19.3751 14.8612 19.4445 14.5695C19.4541 14.5253 19.4529 14.4795 19.4408 14.4359C19.4287 14.3923 19.4061 14.3524 19.3751 14.3195C19.2917 14.2501 19.1806 14.2778 19.0834 14.2917C18.9584 14.3195 17.0139 15.6112 13.2223 18.1667C12.6667 18.5417 12.1667 18.7362 11.7223 18.7223C11.2223 18.7084 10.2778 18.4445 9.5695 18.2084C8.6945 17.9306 8.01394 17.7778 8.0695 17.2917C8.09728 17.0417 8.4445 16.7917 9.09728 16.5278C13.1528 14.7639 15.8473 13.5973 17.1945 13.0417C21.0556 11.4306 21.8473 11.1528 22.3751 11.1528C22.4862 11.1528 22.7501 11.1806 22.9167 11.3195C23.0556 11.4306 23.0973 11.5834 23.1112 11.6945C23.0973 11.7778 23.1251 12.0278 23.1112 12.2223Z" fill="white" fill-opacity="0.8"/>
</svg>
