<svg width="34" height="34" viewBox="0 0 34 34" fill="none" xmlns="http://www.w3.org/2000/svg">
<path fill-rule="evenodd" clip-rule="evenodd" d="M17.3332 2.77783C9.66239 2.77783 3.44434 8.99589 3.44434 16.6667C3.44434 19.2917 4.1735 21.7501 5.44156 23.8445L4.20267 28.0556C4.13154 28.2974 4.12686 28.5539 4.18912 28.7981C4.25138 29.0423 4.37829 29.2652 4.5565 29.4434C4.73471 29.6217 4.95764 29.7486 5.20186 29.8108C5.44607 29.8731 5.70255 29.8684 5.94434 29.7973L10.1554 28.5584C12.3203 29.8682 14.803 30.559 17.3332 30.5556C25.0041 30.5556 31.2221 24.3376 31.2221 16.6667C31.2221 8.99589 25.0041 2.77783 17.3332 2.77783ZM14.1916 19.8098C17.0013 22.6181 19.6832 22.9889 20.6304 23.0237C22.0707 23.0764 23.4735 21.9764 24.0193 20.7001C24.0882 20.5413 24.1133 20.3669 24.0918 20.1951C24.0703 20.0234 24.003 19.8606 23.8971 19.7237C23.136 18.7514 22.1068 18.0528 21.1013 17.3584C20.8913 17.2132 20.6333 17.155 20.3814 17.1959C20.1294 17.2368 19.9031 17.3737 19.7499 17.5778L18.9166 18.8487C18.8727 18.917 18.8045 18.966 18.7257 18.9856C18.647 19.0052 18.5637 18.994 18.4929 18.9542C17.9277 18.6306 17.1041 18.0806 16.5124 17.4889C15.9207 16.8973 15.4041 16.1112 15.1138 15.582C15.0778 15.5148 15.0674 15.4368 15.0845 15.3625C15.1016 15.2881 15.1451 15.2226 15.2068 15.1778L16.4902 14.2251C16.6733 14.0658 16.7915 13.8448 16.8222 13.604C16.853 13.3633 16.7941 13.1196 16.6568 12.9195C16.0346 12.0084 15.3096 10.8501 14.2582 10.082C14.1225 9.98367 13.9636 9.92236 13.797 9.9041C13.6304 9.88583 13.462 9.91124 13.3082 9.97783C12.0304 10.5251 10.9249 11.9278 10.9777 13.3709C11.0124 14.3181 11.3832 17.0001 14.1916 19.8098Z" fill="white" fill-opacity="0.8"/>
</svg>
